<svg width="460.8pt" height="345.6pt" version="1.1" viewBox="0 0 460.8 345.6" xmlns="http://www.w3.org/2000/svg" xmlns:xlink="http://www.w3.org/1999/xlink">
  <defs>
    <style type="text/css">*{stroke-linecap:butt;stroke-linejoin:round;white-space:pre;}</style>
  </defs>
  <path d="m0 345.6h460.8v-345.6h-460.8z" fill="#ffffff"/>
  <path d="m57.6 307.6h357.1v-266.1h-357.1z" fill="#ffffff"/>
  <defs>
    <path id="a" d="m0 0v3.5" stroke="#000000" />
  </defs>
  <use x="73.832727" y="307.584" stroke="#000000"  xlink:href="#a"/>
  <text x="73.832727" y="322.182437"  font-size="10px" text-anchor="middle">0</text>
  <use x="115.455105" y="307.584" stroke="#000000"  xlink:href="#a"/>
  <text x="115.455105" y="322.182437"  font-size="10px" text-anchor="middle">5</text>
  <use x="157.077483" y="307.584" stroke="#000000"  xlink:href="#a"/>
  <text x="157.077483" y="322.182437"  font-size="10px" text-anchor="middle">10</text>
  <use x="198.69986" y="307.584" stroke="#000000"  xlink:href="#a"/>
  <text x="198.69986" y="322.182437"  font-size="10px" text-anchor="middle">15</text>
  <use x="240.322238" y="307.584" stroke="#000000"  xlink:href="#a"/>
  <text x="240.322238" y="322.182437"  font-size="10px" text-anchor="middle">20</text>
  <use x="281.944615" y="307.584" stroke="#000000"  xlink:href="#a"/>
  <text x="281.944615" y="322.182437"  font-size="10px" text-anchor="middle">25</text>
  <use x="323.566993" y="307.584" stroke="#000000"  xlink:href="#a"/>
  <text x="323.566993" y="322.182437"  font-size="10px" text-anchor="middle">30</text>
  <use x="365.189371" y="307.584" stroke="#000000"  xlink:href="#a"/>
  <text x="365.189371" y="322.182437"  font-size="10px" text-anchor="middle">35</text>
  <use x="406.811748" y="307.584" stroke="#000000"  xlink:href="#a"/>
  <text x="406.811748" y="322.182437"  font-size="10px" text-anchor="middle">40</text>
  <defs>
    <path id="b" d="m0 0h-3.5" stroke="#000000" />
  </defs>
  <use x="57.6" y="295.488" stroke="#000000"  xlink:href="#b"/>
  <text x="50.6" y="299.287219"  font-size="10px" text-anchor="end">0</text>
  <use x="57.6" y="258.971774" stroke="#000000"  xlink:href="#b"/>
  <text x="50.6" y="262.770992"  font-size="10px" text-anchor="end">2</text>
  <use x="57.6" y="222.455547" stroke="#000000"  xlink:href="#b"/>
  <text x="50.6" y="226.254766"  font-size="10px" text-anchor="end">4</text>
  <use x="57.6" y="185.939321" stroke="#000000"  xlink:href="#b"/>
  <text x="50.6" y="189.73854"  font-size="10px" text-anchor="end">6</text>
  <use x="57.6" y="149.423094" stroke="#000000"  xlink:href="#b"/>
  <text x="50.6" y="153.222313"  font-size="10px" text-anchor="end">8</text>
  <use x="57.6" y="112.906868" stroke="#000000"  xlink:href="#b"/>
  <text x="50.6" y="116.706087"  font-size="10px" text-anchor="end">10</text>
  <use x="57.6" y="76.390642" stroke="#000000"  xlink:href="#b"/>
  <text x="50.6" y="80.18986"  font-size="10px" text-anchor="end">12</text>
  <path d="m73.83 295.5 8.324-8.216 8.324-12.17 8.324-11.56 8.324-12.48 8.324-13.08 8.324-11.87 8.324-1.522 8.324-24.65 8.324-5.173 8.324-7.912 8.324 0.9129 8.324-44.73 8.324 11.26 8.324-11.56 8.324-20.69 8.324-1.522 8.324-19.17 8.324-17.04 8.324-14.3 8.324-16.43 8.324 23.43 8.324 17.04 8.324 15.82 8.324 3.043 8.324 24.34 8.324-8.825 8.324 34.69 8.324-1.522 8.324 13.69 8.324 9.433 8.324 2.13 8.324 15.22 8.324 27.69 8.324 5.477 8.324-4.869 8.324 19.78 8.324 17.95 8.324 6.695 8.324 10.35" clip-path="url(#c)" fill="none" stroke="#1f77b4" stroke-linecap="square" stroke-width="1.5"/>
  <path d="m57.6 307.6v-266.1" fill="none" stroke="#000000" stroke-linecap="square" />
  <path d="m414.7 307.6v-266.1" fill="none" stroke="#000000" stroke-linecap="square" />
  <path d="m57.6 307.6h357.1" fill="none" stroke="#000000" stroke-linecap="square" />
  <path d="m57.6 41.47h357.1" fill="none" stroke="#000000" stroke-linecap="square" />
  <defs>
    <clipPath id="c">
      <rect x="57.6" y="41.47" width="357.1" height="266.1"/>
    </clipPath>
  </defs>
</svg>
