<svg width="720pt" height="216pt" version="1.1" viewBox="0 0 720 216" xmlns="http://www.w3.org/2000/svg" xmlns:xlink="http://www.w3.org/1999/xlink">
  <defs>
    <style type="text/css">*{stroke-linecap:butt;stroke-linejoin:round;white-space:pre;}</style>
  </defs>
  <path d="m0 216h720v-216h-720z" fill="#ffffff"/>
  <path d="m44.57 188.1h189.2v-177.3h-189.2z" fill="#ffffff"/>
  <defs>
    <path id="b" d="m0 0v3.5" stroke="#000000" />
  </defs>
  <use x="53.168378" y="188.12" stroke="#000000"  xlink:href="#b"/>
  <text x="53.168378" y="202.718437"  font-size="10px" text-anchor="middle">0</text>
  <use x="97.262622" y="188.12" stroke="#000000"  xlink:href="#b"/>
  <text x="97.262622" y="202.718437"  font-size="10px" text-anchor="middle">10</text>
  <use x="141.356866" y="188.12" stroke="#000000"  xlink:href="#b"/>
  <text x="141.356866" y="202.718437"  font-size="10px" text-anchor="middle">20</text>
  <use x="185.45111" y="188.12" stroke="#000000"  xlink:href="#b"/>
  <text x="185.45111" y="202.718437"  font-size="10px" text-anchor="middle">30</text>
  <use x="229.545354" y="188.12" stroke="#000000"  xlink:href="#b"/>
  <text x="229.545354" y="202.718437"  font-size="10px" text-anchor="middle">40</text>
  <defs>
    <path id="a" d="m0 0h-3.5" stroke="#000000" />
  </defs>
  <use x="44.57" y="180.06" stroke="#000000"  xlink:href="#a"/>
  <text x="37.57" y="183.859219"  font-size="10px" text-anchor="end">0</text>
  <use x="44.57" y="155.727925" stroke="#000000"  xlink:href="#a"/>
  <text x="37.57" y="159.527143"  font-size="10px" text-anchor="end">2</text>
  <use x="44.57" y="131.395849" stroke="#000000"  xlink:href="#a"/>
  <text x="37.57" y="135.195068"  font-size="10px" text-anchor="end">4</text>
  <use x="44.57" y="107.063774" stroke="#000000"  xlink:href="#a"/>
  <text x="37.57" y="110.862992"  font-size="10px" text-anchor="end">6</text>
  <use x="44.57" y="82.731698" stroke="#000000"  xlink:href="#a"/>
  <text x="37.57" y="86.530917"  font-size="10px" text-anchor="end">8</text>
  <use x="44.57" y="58.399623" stroke="#000000"  xlink:href="#a"/>
  <text x="37.57" y="62.198841"  font-size="10px" text-anchor="end">10</text>
  <use x="44.57" y="34.067547" stroke="#000000"  xlink:href="#a"/>
  <text x="37.57" y="37.866766"  font-size="10px" text-anchor="end">12</text>
  <text transform="rotate(-90 18.77 99.46)" x="18.765312" y="99.46"  font-size="10px" text-anchor="middle">average</text>
  <path d="m53.17 180.1h2.205v-5.475h4.409v-8.111h4.409v-7.705h4.409v-8.313h4.409v-8.719h4.409v-7.908h4.409v-1.014h4.409v-16.42h4.409v-3.447h4.409v-5.272h4.409v0.6083h4.409v-29.81h4.409v7.502h4.409v-7.705h4.409v-13.79h4.409v-1.014h4.409v-12.77h4.409v-11.35h4.409v-9.53h4.409v-10.95h4.409v15.61h4.409v11.35h4.409v10.54h4.409v2.028h4.409v16.22h4.409v-5.88h4.409v23.12h4.409v-1.014h4.409v9.125h4.409v6.286h4.409v1.419h4.409v10.14h4.409v18.45h4.409v3.65h4.409v-3.244h4.409v13.18h4.409v11.96h4.409v4.461h4.409v6.894h2.205" clip-path="url(#c)" fill="none" stroke="#1f77b4" stroke-linecap="square" stroke-width="1.5"/>
  <path d="m44.57 188.1v-177.3" fill="none" stroke="#000000" stroke-linecap="square" />
  <path d="m233.7 188.1v-177.3" fill="none" stroke="#000000" stroke-linecap="square" />
  <path d="m44.57 188.1h189.2" fill="none" stroke="#000000" stroke-linecap="square" />
  <path d="m44.57 10.8h189.2" fill="none" stroke="#000000" stroke-linecap="square" />
  <path d="m281 188.1h189.2v-177.3h-189.2z" fill="#ffffff"/>
  <use x="289.568378" y="188.12" stroke="#000000"  xlink:href="#b"/>
  <text x="289.568378" y="202.718437"  font-size="10px" text-anchor="middle">0</text>
  <use x="333.662622" y="188.12" stroke="#000000"  xlink:href="#b"/>
  <text x="333.662622" y="202.718437"  font-size="10px" text-anchor="middle">10</text>
  <use x="377.756866" y="188.12" stroke="#000000"  xlink:href="#b"/>
  <text x="377.756866" y="202.718437"  font-size="10px" text-anchor="middle">20</text>
  <use x="421.85111" y="188.12" stroke="#000000"  xlink:href="#b"/>
  <text x="421.85111" y="202.718437"  font-size="10px" text-anchor="middle">30</text>
  <use x="465.945354" y="188.12" stroke="#000000"  xlink:href="#b"/>
  <text x="465.945354" y="202.718437"  font-size="10px" text-anchor="middle">40</text>
  <use x="280.97" y="180.06" stroke="#000000"  xlink:href="#a"/>
  <text x="273.97" y="183.859219"  font-size="10px" text-anchor="end">0</text>
  <use x="280.97" y="139.76" stroke="#000000"  xlink:href="#a"/>
  <text x="273.97" y="143.559219"  font-size="10px" text-anchor="end">5</text>
  <use x="280.97" y="99.46" stroke="#000000"  xlink:href="#a"/>
  <text x="273.97" y="103.259219"  font-size="10px" text-anchor="end">10</text>
  <use x="280.97" y="59.16" stroke="#000000"  xlink:href="#a"/>
  <text x="273.97" y="62.959219"  font-size="10px" text-anchor="end">15</text>
  <use x="280.97" y="18.86" stroke="#000000"  xlink:href="#a"/>
  <text x="273.97" y="22.659219"  font-size="10px" text-anchor="end">20</text>
  <text transform="rotate(-90 255.2 99.46)" x="255.165312" y="99.46"  font-size="10px" text-anchor="middle">max</text>
  <path d="m289.6 180.1h2.205v-8.06h4.409v-8.06h4.409v-8.06h4.409v-8.06h4.409v-8.06h4.409v-8.06h4.409v-8.06h4.409v-8.06h4.409v-8.06h4.409v-8.06h4.409v-8.06h4.409v-8.06h4.409v-8.06h4.409v-8.06h4.409v-8.06h4.409v-8.06h4.409v-8.06h4.409v-8.06h4.409v-8.06h4.409v-8.06h4.409v8.06h4.409v8.06h4.409v8.06h4.409v8.06h4.409v8.06h4.409v8.06h4.409v8.06h4.409v8.06h4.409v8.06h4.409v8.06h4.409v8.06h4.409v8.06h4.409v8.06h4.409v8.06h4.409v8.06h4.409v8.06h4.409v8.06h4.409v8.06h4.409v8.06h2.205" clip-path="url(#e)" fill="none" stroke="#1f77b4" stroke-linecap="square" stroke-width="1.5"/>
  <path d="m281 188.1v-177.3" fill="none" stroke="#000000" stroke-linecap="square" />
  <path d="m470.1 188.1v-177.3" fill="none" stroke="#000000" stroke-linecap="square" />
  <path d="m281 188.1h189.2" fill="none" stroke="#000000" stroke-linecap="square" />
  <path d="m281 10.8h189.2" fill="none" stroke="#000000" stroke-linecap="square" />
  <path d="m517.4 188.1h189.2v-177.3h-189.2z" fill="#ffffff"/>
  <use x="525.968378" y="188.12" stroke="#000000"  xlink:href="#b"/>
  <text x="525.968378" y="202.718437"  font-size="10px" text-anchor="middle">0</text>
  <use x="570.062622" y="188.12" stroke="#000000"  xlink:href="#b"/>
  <text x="570.062622" y="202.718437"  font-size="10px" text-anchor="middle">10</text>
  <use x="614.156866" y="188.12" stroke="#000000"  xlink:href="#b"/>
  <text x="614.156866" y="202.718437"  font-size="10px" text-anchor="middle">20</text>
  <use x="658.25111" y="188.12" stroke="#000000"  xlink:href="#b"/>
  <text x="658.25111" y="202.718437"  font-size="10px" text-anchor="middle">30</text>
  <use x="702.345354" y="188.12" stroke="#000000"  xlink:href="#b"/>
  <text x="702.345354" y="202.718437"  font-size="10px" text-anchor="middle">40</text>
  <use x="517.37" y="180.06" stroke="#000000"  xlink:href="#a"/>
  <text x="510.37" y="183.859219"  font-size="10px" text-anchor="end">0</text>
  <use x="517.37" y="147.82" stroke="#000000"  xlink:href="#a"/>
  <text x="510.37" y="151.619219"  font-size="10px" text-anchor="end">1</text>
  <use x="517.37" y="115.58" stroke="#000000"  xlink:href="#a"/>
  <text x="510.37" y="119.379219"  font-size="10px" text-anchor="end">2</text>
  <use x="517.37" y="83.34" stroke="#000000"  xlink:href="#a"/>
  <text x="510.37" y="87.139219"  font-size="10px" text-anchor="end">3</text>
  <use x="517.37" y="51.1" stroke="#000000"  xlink:href="#a"/>
  <text x="510.37" y="54.899219"  font-size="10px" text-anchor="end">4</text>
  <use x="517.37" y="18.86" stroke="#000000"  xlink:href="#a"/>
  <text x="510.37" y="22.659219"  font-size="10px" text-anchor="end">5</text>
  <text transform="rotate(-90 497.9 99.46)" x="497.927812" y="99.46"  font-size="10px" text-anchor="middle">min</text>
  <path d="m526 180.1h2.205v0h4.409v0h4.409v0h4.409v-32.24h4.409v0h4.409v0h4.409v0h4.409v-32.24h4.409v0h4.409v0h4.409v0h4.409v-32.24h4.409v0h4.409v0h4.409v0h4.409v-32.24h4.409v-32.24h4.409v0h4.409v0h4.409v0h4.409v32.24h4.409v0h4.409v0h4.409v0h4.409v32.24h4.409v0h4.409v0h4.409v0h4.409v32.24h4.409v0h4.409v0h4.409v0h4.409v32.24h4.409v0h4.409v0h4.409v0h4.409v32.24h4.409v0h4.409v0h2.205" clip-path="url(#d)" fill="none" stroke="#1f77b4" stroke-linecap="square" stroke-width="1.5"/>
  <path d="m517.4 188.1v-177.3" fill="none" stroke="#000000" stroke-linecap="square" />
  <path d="m706.5 188.1v-177.3" fill="none" stroke="#000000" stroke-linecap="square" />
  <path d="m517.4 188.1h189.2" fill="none" stroke="#000000" stroke-linecap="square" />
  <path d="m517.4 10.8h189.2" fill="none" stroke="#000000" stroke-linecap="square" />
  <defs>
    <clipPath id="c">
      <rect x="44.57" y="10.8" width="189.2" height="177.3"/>
    </clipPath>
    <clipPath id="e">
      <rect x="281" y="10.8" width="189.2" height="177.3"/>
    </clipPath>
    <clipPath id="d">
      <rect x="517.4" y="10.8" width="189.2" height="177.3"/>
    </clipPath>
  </defs>
</svg>
