<svg xmlns="http://www.w3.org/2000/svg" xmlns:xlink="http://www.w3.org/1999/xlink" width="603.46" height="603.46"><g transform="translate(-185.67901234567904 -185.67901234567904)"><path d="M0 0h232.1v232.1H0z" fill="#fff"/><path d="M378.83 450.32c0-2.76 2.24-5 5-5h30.36c2.75 0 5 2.24 5 5v19.6c0 2.75-2.25 5-5 5h-30.37c-2.76 0-5-2.25-5-5z" stroke="#000" stroke-width="2" fill="#fff"/><use xlink:href="#a" transform="matrix(1,0,0,1,378.8342003957404,445.3170731707317) translate(15.527786160646242 17.90437585733882)"/><path d="M577.9 450.32c0-2.76 2.24-5 5-5h30.06c2.76 0 5 2.24 5 5v19.6c0 2.75-2.24 5-5 5H582.9c-2.76 0-5-2.25-5-5z" stroke="#000" stroke-width="2" fill="#fff"/><use xlink:href="#b" transform="matrix(1,0,0,1,577.9058376961083,445.3170731707317) translate(15.527786160646242 17.90437585733882)"/><path d="M537.85 450.32c0-2.76 2.24-5 5-5h30.06c2.77 0 5 2.24 5 5v19.6c0 2.75-2.23 5-5 5h-30.05c-2.76 0-5-2.25-5-5z" stroke="#000" stroke-width="2" fill="#fff"/><use xlink:href="#c" transform="matrix(1,0,0,1,537.8495199234682,445.3170731707317) translate(15.527786160646242 17.90437585733882)"/><path d="M497.8 450.32c0-2.76 2.23-5 5-5h30.05c2.76 0 5 2.24 5 5v19.6c0 2.75-2.24 5-5 5H502.8c-2.77 0-5-2.25-5-5z" stroke="#000" stroke-width="2" fill="#fff"/><use xlink:href="#d" transform="matrix(1,0,0,1,497.79320215082805,445.3170731707317) translate(15.527786160646242 17.90437585733882)"/><path d="M459.55 450.32c0-2.76 2.24-5 5-5h30.36c2.77 0 5 2.24 5 5v19.6c0 2.75-2.23 5-5 5h-30.35c-2.76 0-5-2.25-5-5z" stroke="#000" stroke-width="2" fill="#fff"/><use xlink:href="#e" transform="matrix(1,0,0,1,459.5518117224371,445.3170731707317) translate(15.97550754458162 17.90437585733882)"/><path d="M419.2 450.32c0-2.76 2.23-5 5-5h30.35c2.76 0 5 2.24 5 5v19.6c0 2.75-2.24 5-5 5H424.2c-2.77 0-5-2.25-5-5z" stroke="#000" stroke-width="2" fill="#fff"/><use xlink:href="#f" transform="matrix(1,0,0,1,419.19300605908865,445.3170731707317) translate(15.97550754458162 17.90437585733882)"/><path d="M477.22 357c8.9 0 16.14 6.62 16.14 14.8 0 8.17-7.23 14.8-16.14 14.8h-48.44c-8.9 0-16.14-6.63-16.14-14.8 0-8.18 7.23-14.8 16.14-14.8z" stroke="#000" stroke-width="2" fill="#fff"/><use xlink:href="#g" transform="matrix(1,0,0,1,412.6411943366517,357) translate(24.857137631458617 17.90437585733882)"/><path d="M453 386.6l-.08 1.95-.24 1.82-.37 1.72-.5 1.65-.66 1.64-.83 1.63-1.03 1.68-1.3 1.76-1.68 1.9-2.24 2.12-3.16 2.53-5.27 3.5-24.5 14.4-3.18 2.53-2.23 2.12-1.67 1.9-1.3 1.75-1.05 1.68-.83 1.64-.66 1.64-.5 1.66-.37 1.72-.23 1.82-.1 1.96" stroke="#000" stroke-width="2" fill="none"/><path d="M453.94 386.93l-.94-.34h1.06zM408.22 433.48l-9.2 11.84.5-15z"/><path d="M409.86 433l-9.58 12.32H398l.55-16.4zm-9.75 9.27l6.5-8.32-6.14-2.22z"/><path d="M453 386.6l-.28 6.87-.67 5.28-.96 4.47-1.34 4.3-2.48 6.05-4.67 10.8-1.32 4.32-.96 4.46-.67 5.28-.28 6.88" stroke="#000" stroke-width="2" fill="none"/><path d="M454 386.7l-1-.1h1zM445.45 431.6l-6.08 13.72-3.14-14.67z"/><path d="M446.92 430.75l-6.45 14.57h-2.12l-3.4-15.8zm-7.22 11.35l4.28-9.64-6.5-.67z"/><path d="M453 386.6l.16 3.77.4 3.26.64 2.9.82 2.7 1.04 2.56 1.3 2.56 1.72 2.77 2.55 3.42 12.03 14.23 1.7 2.77 1.3 2.57 1.05 2.58.83 2.68.63 2.9.4 3.26.17 3.78" stroke="#000" stroke-width="2" fill="none"/><path d="M452.02 386.78l-.04-.2H453zM479.73 445.32l-7.26-13.13 9.1-1.77z"/><path d="M480.74 445.32h-2.15l-7.67-13.85 11.8-2.28zm-6.73-12.4l5.12 9.22 1.3-10.47z"/><path d="M453 386.6l.06 1.48.16 1.4.27 1.37.35 1.32.47 1.3.6 1.3.72 1.33.9 1.37 1.1 1.44 1.4 1.55 1.78 1.7 2.36 1.92 3.34 2.3 5.3 3.08 32.5 16.1 3.32 2.3 2.37 1.9 1.8 1.7 1.38 1.55 1.1 1.44.9 1.37.73 1.33.6 1.3.47 1.3.37 1.33.26 1.36.16 1.4.06 1.5" stroke="#000" stroke-width="2" fill="none"/><path d="M452.08 386.98l-.17-.4h1.1zM517.82 445.32L508 433.98l8.55-3.6z"/><path d="M518.83 445.32h-2.33l-10.15-11.73 11.08-4.7zm-9.17-10.96l6.9 7.98-.9-10.5z"/><path d="M453 386.6v.55l.05.55.07.53.08.53.12.53.14.5.16.54.2.53.23.54.26.55.32.56.34.6.4.58.46.62.52.64.6.68.72.7.84.78.98.82 1.18.9 1.43.97 1.75 1.08 2.22 1.23 2.88 1.44 3.9 1.7 5.67 2.16 9.74 3.18 45.02 13.2 5.67 2.15 3.9 1.7 2.88 1.43 2.22 1.23 1.76 1.08 1.44.98 1.18.9.98.8.84.78.7.7.6.7.54.63.46.62.4.58.34.58.3.56.27.54.23.54.2.53.16.53.14.52.1.53.1.54.07.54.04.54v.56" stroke="#000" stroke-width="2" fill="none"/><path d="M452.15 387.13l-.33-.54H453zM558.8 444.58l-11.5-9.63 7.85-4.92z"/><path d="M560.02 445.32h-1.9l-12.52-10.5 10.2-6.37zM549 435.07l8.08 6.76-2.56-10.22z"/><path d="M453 386.6v.37l.03.36.04.36.05.35.07.36.08.37.1.36.1.37.15.37.16.37.17.4.2.38.24.4.27.4.3.44.34.45.4.48.44.5.5.5.6.57.7.6.8.62.94.7 1.14.75 1.37.83 1.68.92 2.1 1.05 2.7 1.2 3.58 1.4 4.92 1.72 7.26 2.17 12.4 3.17 69.66 15.33 7.25 2.18 4.92 1.7 3.57 1.4 2.7 1.2 2.12 1.06 1.68.92 1.38.83 1.13.75.95.7.8.62.7.6.58.55.5.52.46.5.38.46.34.45.3.43.27.4.23.4.2.4.18.4.16.36.14.37.12.38.1.36.08.36.07.36.07.36.03.36.03.37v.37" stroke="#000" stroke-width="2" fill="none"/><path d="M452.2 387.2l-.46-.6H453zM597.93 445.32l-12.36-8.5 7.36-5.64z"/><path d="M599 445.32h-2.83l-12.3-8.46 9.54-7.32zm-11.73-8.55l8.7 5.98-3.52-9.94z"/><path d="M453 357l-.04-31.94" stroke="#000" stroke-width="2" fill="none"/><path d="M454 357h-1.4 1.4zM457.6 339.32h-9.26l4.62-14.26z"/><path d="M459 340.32h-12.03l5.28-16.32h1.42zm-9.28-2h6.52l-3.27-10.03z"/><path d="M372.1 503.37c0-2.76 2.24-5 5-5h23.7c2.77 0 5 2.24 5 5v17.7c0 2.75-2.23 5-5 5h-23.7c-2.76 0-5-2.25-5-5z" fill="none"/><use xlink:href="#h" transform="matrix(1,0,0,1,372.10137199075217,498.36964408761855) translate(12.522786160646243 17.223593964334704)"/><path d="M334.98 525.2c0-2.77 2.24-5 5-5h30.36c2.76 0 5 2.23 5 5v19.6c0 2.75-2.24 5-5 5h-30.36c-2.76 0-5-2.25-5-5z" stroke="#000" stroke-width="2" fill="#fff"/><use xlink:href="#a" transform="matrix(1,0,0,1,334.97955638347713,520.1959249222123) translate(15.527786160646242 17.90437585733882)"/><path d="M334.8 680.4c0-2.75 2.25-5 5-5h30.37c2.76 0 5 2.25 5 5V700c0 2.76-2.24 5-5 5H339.8c-2.75 0-5-2.24-5-5z" stroke="#000" stroke-width="2" fill="#fff"/><use xlink:href="#b" transform="matrix(1,0,0,1,334.810149051063,675.4065040650407) translate(15.527786160646242 17.90437585733882)"/><path d="M334.8 647.85c0-2.76 2.25-5 5-5h30.37c2.76 0 5 2.24 5 5v19.6c0 2.76-2.24 5-5 5H339.8c-2.75 0-5-2.24-5-5z" stroke="#000" stroke-width="2" fill="#fff"/><use xlink:href="#c" transform="matrix(1,0,0,1,334.810149051063,642.8536585365855) translate(15.527786160646242 17.90437585733882)"/><path d="M334.8 617.52c0-2.76 2.25-5 5-5h30.37c2.76 0 5 2.24 5 5v19.6c0 2.76-2.24 5-5 5H339.8c-2.75 0-5-2.24-5-5z" stroke="#000" stroke-width="2" fill="#fff"/><use xlink:href="#d" transform="matrix(1,0,0,1,334.810149051063,612.520325203252) translate(15.527786160646242 17.90437585733882)"/><path d="M334.8 586.45c0-2.76 2.25-5 5-5h30.37c2.76 0 5 2.24 5 5v19.6c0 2.75-2.24 5-5 5H339.8c-2.75 0-5-2.25-5-5z" stroke="#000" stroke-width="2" fill="#fff"/><use xlink:href="#e" transform="matrix(1,0,0,1,334.810149051063,581.4471544715448) translate(15.97550754458162 17.90437585733882)"/><path d="M334.98 554.8c0-2.77 2.24-5 5-5h30.36c2.76 0 5 2.23 5 5v19.58c0 2.76-2.24 5-5 5h-30.36c-2.76 0-5-2.24-5-5z" stroke="#000" stroke-width="2" fill="#fff"/><use xlink:href="#f" transform="matrix(1,0,0,1,334.97955638347713,549.7894208571715) translate(15.97550754458162 17.90437585733882)"/><path d="M399 474.9l-.5 28.52-.92 7.58-1.04 4.97-1.07 3.6-1.08 2.76-1.1 2.2-1.06 1.8-1.08 1.5-1.1 1.26-1.1 1.1-1.14.95-1.18.83-1.25.73-1.34.65-1.43.54-1.57.45-1.75.35-1.97.22-2 .07" stroke="#000" stroke-width="2" fill="none"/><path d="M400 474.93l-1.03-.02H400zM390.33 534.53l-15 .46 11.87-9.2z"/><path d="M391.74 535.5l-16.4.5v-2.27l12.33-9.56zm-13.36-1.6l10.54-.33-2.2-6.13z"/><path d="M439.37 474.9l-.22 8.12-.66 7.9-1.07 7.54-1.4 7.05-1.66 6.52-1.87 5.93-2.04 5.37-2.14 4.83-2.23 4.35-2.3 3.9-2.32 3.5-2.35 3.16-2.36 2.83-2.4 2.53-2.4 2.3-2.4 2.07-2.45 1.86-2.48 1.67-2.5 1.5-2.56 1.35-2.62 1.2-2.67 1.03-2.77.9-2.85.77-2.96.62-3.1.45-3.24.3-3.43.13h-.6" stroke="#000" stroke-width="2" fill="none"/><path d="M440.37 474.97l-1.02-.06h1.02zM390.08 567.36l-14.74-2.77 13.56-6.43z"/><path d="M391.25 568.6l-15.9-3v-2.12l14.36-6.8zm-12.7-4.43l10.36 1.95-.82-6.46z"/><path d="M479.73 474.9l-.13 6.35-.4 6.28-.65 6.18-.9 6.1-1.13 5.93-1.35 5.8-1.57 5.6-1.77 5.45-1.95 5.24-2.12 5.04-2.27 4.83-2.42 4.6-2.54 4.4-2.65 4.17-2.76 3.96-2.84 3.75-2.93 3.53-3 3.34-3.06 3.14-3.12 2.94-3.2 2.75-3.24 2.57-3.3 2.4-3.35 2.23-3.42 2.06-3.46 1.9-3.52 1.75-3.58 1.6-3.64 1.44-3.7 1.3-3.78 1.13-3.86 1-3.94.83-4.04.68-4.14.52-4.25.36-4.37.18-2.23.02" stroke="#000" stroke-width="2" fill="none"/><path d="M480.73 474.96l-1.04-.05h1.03zM389.73 599.84l-14.56-3.6 13.9-5.65z"/><path d="M390.83 601.14l-15.66-3.87v-2.1l14.8-6.02zM378.4 596l10.24 2.54-.47-6.5z"/><path d="M517.82 474.9l-.15 7.37-.46 7.24-.74 7.14-1.03 7-1.3 6.88-1.6 6.72-1.82 6.58-2.08 6.4-2.32 6.25-2.55 6.07-2.77 5.88-2.97 5.7-3.16 5.5-3.36 5.28-3.53 5.08-3.7 4.87-3.86 4.66-4 4.46-4.15 4.23-4.27 4-4.4 3.8-4.52 3.58-4.63 3.36-4.74 3.15-4.85 2.92-4.95 2.72-5.05 2.5-5.16 2.3-5.26 2.1-5.36 1.85-5.47 1.64-5.56 1.43-5.7 1.2-5.8 1-5.94.75-6.07.5-6.2.26-3.16.04" stroke="#000" stroke-width="2" fill="none"/><path d="M518.82 474.96l-1.06-.05h1.06zM389.65 631.22l-14.48-3.9 14-5.36z"/><path d="M390.72 632.54l-15.55-4.2v-2.1l14.94-5.7zm-12.32-5.4l10.18 2.76-.33-6.5z"/><path d="M557.88 474.9l-.18 8.4-.5 8.22-.86 8.07-1.17 7.9-1.48 7.76-1.8 7.6-2.08 7.47-2.37 7.3-2.65 7.13-2.93 6.98-3.2 6.8-3.48 6.64-3.74 6.46-3.98 6.28-4.23 6.1-4.48 5.88-4.7 5.7-4.95 5.48-5.16 5.28-5.38 5.05-5.6 4.84-5.8 4.6-5.98 4.34-6.2 4.1-6.35 3.87-6.55 3.6-6.72 3.33-6.9 3.07-7.04 2.8-7.22 2.5-7.37 2.23-7.53 1.93-7.68 1.64-7.84 1.33-7.98 1-8.15.7-8.3.34-4.2.05" stroke="#000" stroke-width="2" fill="none"/><path d="M558.88 474.95l-1.08-.04h1.08zM389.6 661.7l-14.43-4.05 14.07-5.2z"/><path d="M390.66 663.05l-15.5-4.36v-2.12l15.02-5.55zm-12.26-5.53l10.15 2.86-.26-6.52z"/><path d="M597.93 474.9l-.2 9.67-.6 9.45-.96 9.26-1.34 9.08-1.7 8.9-2.04 8.7-2.4 8.54-2.72 8.37-3.05 8.2-3.37 8.03-3.7 7.86-4.02 7.68-4.33 7.5-4.63 7.32-4.96 7.13-5.25 6.93-5.57 6.73-5.87 6.52-6.16 6.3-6.46 6.06-6.75 5.83-7.03 5.57-7.3 5.3-7.58 5.04-7.83 4.74-8.1 4.45-8.35 4.14-8.57 3.83-8.8 3.48-9.04 3.16-9.25 2.8-9.46 2.42-9.65 2.05-9.85 1.66-10.03 1.26-10.2.85-10.4.45-5.25.05" stroke="#000" stroke-width="2" fill="none"/><path d="M598.93 474.95l-1.1-.04h1.1zM389.57 694.4l-14.4-4.2 14.12-5.07z"/><path d="M390.6 695.74l-15.43-4.5v-2.1l15.07-5.42zm-12.2-5.64l10.13 2.95-.2-6.5z"/><path d="M440.2 502.1c0-2.76 2.24-5 5-5h110.17c2.76 0 5 2.24 5 5v27c0 2.76-2.24 5-5 5H445.2c-2.76 0-5-2.24-5-5z" fill="#fff"/><use xlink:href="#i" transform="matrix(1,0,0,1,440.1971122042405,497.1056910569106) translate(19.844391860996794 22.144375857338822)"/><path d="M386.96 255.02c0-2.77 2.24-5 5-5h176.08c2.76 0 5 2.23 5 5V319c0 2.76-2.24 5-5 5H391.96c-2.76 0-5-2.24-5-5z" fill="#fff"/><use xlink:href="#j" transform="matrix(1,0,0,1,386.9630054508032,250.0162601626016) translate(5.01 22.558183857338825)"/><use xlink:href="#k" transform="matrix(1,0,0,1,386.9630054508032,250.0162601626016) translate(47.90170858100899 22.558183857338825)"/><use xlink:href="#l" transform="matrix(1,0,0,1,386.9630054508032,250.0162601626016) translate(61.78107148300563 22.558183857338825)"/><use xlink:href="#m" transform="matrix(1,0,0,1,386.9630054508032,250.0162601626016) translate(5.01 41.899747643347055)"/><use xlink:href="#n" transform="matrix(1,0,0,1,386.9630054508032,250.0162601626016) translate(7.01 61.241311429355285)"/><use xlink:href="#o" transform="matrix(1,0,0,1,386.9630054508032,250.0162601626016) translate(41.842723670172234 61.241311429355285)"/><use xlink:href="#p" transform="matrix(1,0,0,1,386.9630054508032,250.0162601626016) translate(89.25641822892852 61.241311429355285)"/><use xlink:href="#q" transform="matrix(1,0,0,1,386.9630054508032,250.0162601626016) translate(116.97037189452828 61.241311429355285)"/><path d="M477.85 637.7c0-2.75 2.24-5 5-5h23.7c2.77 0 5 2.25 5 5v17.7c0 2.76-2.23 5-5 5h-23.7c-2.76 0-5-2.24-5-5z" fill="none"/><use xlink:href="#r" transform="matrix(1,0,0,1,477.85005091052227,632.7095015602673) translate(12.522786160646243 17.223593964334704)"/><path d="M452.2 603.4c0-2.76 2.25-5 5-5h23.72c2.76 0 5 2.24 5 5v30.07c0 2.76-2.24 5-5 5h-23.7c-2.77 0-5-2.24-5-5z" fill="none"/><use xlink:href="#s" transform="matrix(1,0,0,1,452.2140075360324,598.4055672655493) translate(12.522786160646243 23.723593964334704)"/><path d="M436.2 582.96c0-2.76 2.23-5 5-5h23.7c2.76 0 5 2.24 5 5v17.7c0 2.75-2.24 5-5 5h-23.7c-2.77 0-5-2.25-5-5z" fill="none"/><use xlink:href="#t" transform="matrix(1,0,0,1,436.1914804269764,577.9615340805925) translate(12.522786160646243 17.223593964334704)"/><path d="M414.53 556.33c0-2.76 2.24-5 5-5h23.7c2.77 0 5 2.24 5 5V574c0 2.78-2.23 5-5 5h-23.7c-2.76 0-5-2.22-5-5z" fill="none"/><use xlink:href="#u" transform="matrix(1,0,0,1,414.5299471822223,551.3273877391292) translate(12.522786160646243 17.223593964334704)"/><path d="M396.54 521.34c0-2.76 2.23-5 5-5h23.7c2.77 0 5 2.24 5 5v30.07c0 2.77-2.23 5-5 5h-23.7c-2.77 0-5-2.23-5-5z" fill="none"/><g><use xlink:href="#v" transform="matrix(1,0,0,1,396.53572583206284,516.3414634146342) translate(12.522786160646243 23.723593964334704)"/></g><path d="M300 450.32c0-2.76 2.24-5 5-5h46.08c2.76 0 5 2.24 5 5v19.6c0 2.75-2.24 5-5 5H305c-2.76 0-5-2.25-5-5z" stroke="#000" stroke-width="2" fill="#fff"/><g><use xlink:href="#w" transform="matrix(1,0,0,1,300,445.3170731707317) translate(10.588638164913887 17.90437585733882)"/></g><path d="M348.9 446.62c0-2.76 2.25-5 5-5h22.05c2.76 0 5 2.24 5 5v27c0 2.75-2.24 5-5 5H353.9c-2.75 0-5-2.25-5-5z" fill="none"/><g><use xlink:href="#x" transform="matrix(1,0,0,1,348.9065614125854,441.6178861788618) translate(11.798925468678554 21.723593964334704)"/></g><defs><path d="M100-194c62-1 85 37 85 99 1 63-27 99-86 99S16-35 15-95c0-66 28-99 85-99zM99-20c44 1 53-31 53-75 0-43-8-75-51-75s-53 32-53 75 10 74 51 75" id="y"/><use transform="matrix(0.044772138393537574,0,0,0.044772138393537574,0,0)" xlink:href="#y" id="a"/><path d="M117-194c89-4 53 116 60 194h-32v-121c0-31-8-49-39-48C34-167 62-67 57 0H25l-1-190h30c1 10-1 24 2 32 11-22 29-35 61-36" id="z"/><use transform="matrix(0.044772138393537574,0,0,0.044772138393537574,0,0)" xlink:href="#z" id="b"/><path d="M100-194c63 0 86 42 84 106H49c0 40 14 67 53 68 26 1 43-12 49-29l28 8c-11 28-37 45-77 45C44 4 14-33 15-96c1-61 26-98 85-98zm52 81c6-60-76-77-97-28-3 7-6 17-6 28h103" id="A"/><use transform="matrix(0.044772138393537574,0,0,0.044772138393537574,0,0)" xlink:href="#A" id="c"/><path d="M177-190C167-65 218 103 67 71c-23-6-38-20-44-43l32-5c15 47 100 32 89-28v-30C133-14 115 1 83 1 29 1 15-40 15-95c0-56 16-97 71-98 29-1 48 16 59 35 1-10 0-23 2-32h30zM94-22c36 0 50-32 50-73 0-42-14-75-50-75-39 0-46 34-46 75s6 73 46 73" id="B"/><use transform="matrix(0.044772138393537574,0,0,0.044772138393537574,0,0)" xlink:href="#B" id="d"/><path d="M179-190L93 31C79 59 56 82 12 73V49c39 6 53-20 64-50L1-190h34L92-34l54-156h33" id="C"/><use transform="matrix(0.044772138393537574,0,0,0.044772138393537574,0,0)" xlink:href="#C" id="e"/><path d="M141 0L90-78 38 0H4l68-98-65-92h35l48 74 47-74h35l-64 92 68 98h-35" id="D"/><use transform="matrix(0.044772138393537574,0,0,0.044772138393537574,0,0)" xlink:href="#D" id="f"/><path d="M96-169c-40 0-48 33-48 73s9 75 48 75c24 0 41-14 43-38l32 2c-6 37-31 61-74 61-59 0-76-41-82-99-10-93 101-131 147-64 4 7 5 14 7 22l-32 3c-4-21-16-35-41-35" id="E"/><path d="M106-169C34-169 62-67 57 0H25v-261h32l-1 103c12-21 28-36 61-36 89 0 53 116 60 194h-32v-121c2-32-8-49-39-48" id="F"/><path d="M141-36C126-15 110 5 73 4 37 3 15-17 15-53c-1-64 63-63 125-63 3-35-9-54-41-54-24 1-41 7-42 31l-33-3c5-37 33-52 76-52 45 0 72 20 72 64v82c-1 20 7 32 28 27v20c-31 9-61-2-59-35zM48-53c0 20 12 33 32 33 41-3 63-29 60-74-43 2-92-5-92 41" id="G"/><path d="M114-163C36-179 61-72 57 0H25l-1-190h30c1 12-1 29 2 39 6-27 23-49 58-41v29" id="H"/><g id="g"><use transform="matrix(0.044772138393537574,0,0,0.044772138393537574,0,0)" xlink:href="#E"/><use transform="matrix(0.044772138393537574,0,0,0.044772138393537574,8.058984910836763,0)" xlink:href="#F"/><use transform="matrix(0.044772138393537574,0,0,0.044772138393537574,17.013412589544277,0)" xlink:href="#G"/><use transform="matrix(0.044772138393537574,0,0,0.044772138393537574,25.96784026825179,0)" xlink:href="#H"/></g><path d="M23 0v-37h61v-169l-59 37v-38l62-41h46v211h57V0H23" id="I"/><use transform="matrix(0.044772138393537574,0,0,0.044772138393537574,0,0)" xlink:href="#I" id="h"/><path fill="#498a44" d="M135-194c53 0 70 44 70 98 0 56-19 98-73 100-31 1-45-17-59-34 3 33 2 69 2 105H25l-1-265h48c2 10 0 23 3 31 11-24 29-35 60-35zM114-30c33 0 39-31 40-66 0-38-9-64-40-64-56 0-55 130 0 130" id="J"/><path fill="#498a44" d="M135-150c-39-12-60 13-60 57V0H25l-1-190h47c2 13-1 29 3 40 6-28 27-53 61-41v41" id="K"/><path fill="#498a44" d="M25-224v-37h50v37H25zM25 0v-190h50V0H25" id="L"/><path fill="#498a44" d="M135-194c87-1 58 113 63 194h-50c-7-57 23-157-34-157-59 0-34 97-39 157H25l-1-190h47c2 12-1 28 3 38 12-26 28-41 61-42" id="M"/><path fill="#498a44" d="M115-3C79 11 28 4 28-45v-112H4v-33h27l15-45h31v45h36v33H77v99c-1 23 16 31 38 25v30" id="N"/><path fill="#498a44" d="M67-93c0 74 22 123 53 168H70C40 30 18-18 18-93s22-123 52-168h50c-32 44-53 94-53 168" id="O"/><path fill="#498a44" d="M190-63c-7 42-38 67-86 67-59 0-84-38-90-98-12-110 154-137 174-36l-49 2c-2-19-15-32-35-32-30 0-35 28-38 64-6 74 65 87 74 30" id="P"/><path fill="#498a44" d="M114-157C55-157 80-60 75 0H25v-261h50l-1 109c12-26 28-41 61-42 86-1 58 113 63 194h-50c-7-57 23-157-34-157" id="Q"/><path fill="#498a44" d="M133-34C117-15 103 5 69 4 32 3 11-16 11-54c-1-60 55-63 116-61 1-26-3-47-28-47-18 1-26 9-28 27l-52-2c7-38 36-58 82-57s74 22 75 68l1 82c-1 14 12 18 25 15v27c-30 8-71 5-69-32zm-48 3c29 0 43-24 42-57-32 0-66-3-65 30 0 17 8 27 23 27" id="R"/><path fill="#498a44" d="M102-93c0 74-22 123-52 168H0C30 29 54-18 53-93c0-74-22-123-53-168h50c30 45 52 94 52 168" id="S"/><g id="i"><use transform="matrix(0.044772138393537574,0,0,0.044772138393537574,0,0)" xlink:href="#J"/><use transform="matrix(0.044772138393537574,0,0,0.044772138393537574,9.805098308184728,0)" xlink:href="#K"/><use transform="matrix(0.044772138393537574,0,0,0.044772138393537574,16.07319768327999,0)" xlink:href="#L"/><use transform="matrix(0.044772138393537574,0,0,0.044772138393537574,20.550411522633745,0)" xlink:href="#M"/><use transform="matrix(0.044772138393537574,0,0,0.044772138393537574,30.355509830818473,0)" xlink:href="#N"/><use transform="matrix(0.044772138393537574,0,0,0.044772138393537574,35.68339429964944,0)" xlink:href="#O"/><use transform="matrix(0.044772138393537574,0,0,0.044772138393537574,41.011278768480416,0)" xlink:href="#P"/><use transform="matrix(0.044772138393537574,0,0,0.044772138393537574,49.96570644718792,0)" xlink:href="#Q"/><use transform="matrix(0.044772138393537574,0,0,0.044772138393537574,59.77080475537265,0)" xlink:href="#R"/><use transform="matrix(0.044772138393537574,0,0,0.044772138393537574,68.72523243408017,0)" xlink:href="#K"/><use transform="matrix(0.044772138393537574,0,0,0.044772138393537574,74.99333180917543,0)" xlink:href="#S"/></g><path fill="#498a44" d="M231 0h-52l-39-155L100 0H48L-1-190h46L77-45c9-52 24-97 36-145h53l37 145 32-145h46" id="T"/><path fill="#498a44" d="M110-194c64 0 96 36 96 99 0 64-35 99-97 99-61 0-95-36-95-99 0-62 34-99 96-99zm-1 164c35 0 45-28 45-65 0-40-10-65-43-65-34 0-45 26-45 65 0 36 10 65 43 65" id="U"/><path fill="#498a44" d="M88-194c31-1 46 15 58 34l-1-101h50l1 261h-48c-2-10 0-23-3-31C134-8 116 4 84 4 32 4 16-41 15-95c0-56 19-97 73-99zm17 164c33 0 40-30 41-66 1-37-9-64-41-64s-38 30-39 65c0 43 13 65 39 65" id="V"/><g id="j"><use transform="matrix(0.044772138393537574,0,0,0.044772138393537574,0,0)" xlink:href="#T"/><use transform="matrix(0.044772138393537574,0,0,0.044772138393537574,12.53619875019052,0)" xlink:href="#U"/><use transform="matrix(0.044772138393537574,0,0,0.044772138393537574,22.341297058375247,0)" xlink:href="#K"/><use transform="matrix(0.044772138393537574,0,0,0.044772138393537574,28.609396433470508,0)" xlink:href="#V"/></g><path fill="#498a44" d="M15-148v-39h180v39H15zm0 97v-39h180v39H15" id="W"/><use transform="matrix(0.044772138393537574,0,0,0.044772138393537574,0,0)" xlink:href="#W" id="k"/><path fill="#498a44" d="M62-158H24l-5-90h48" id="X"/><path fill="#498a44" d="M144 0l-44-69L55 0H2l70-98-66-92h53l41 62 40-62h54l-67 91 71 99h-54" id="Y"/><path fill="#498a44" d="M123 10C108 53 80 86 19 72V37c35 8 53-11 59-39L3-190h52l48 148c12-52 28-100 44-148h51" id="Z"/><path fill="#498a44" d="M195-6C206 82 75 100 31 46c-4-6-6-13-8-21l49-6c3 16 16 24 34 25 40 0 42-37 40-79-11 22-30 35-61 35-53 0-70-43-70-97 0-56 18-96 73-97 30 0 46 14 59 34l2-30h47zm-90-29c32 0 41-27 41-63 0-35-9-62-40-62-32 0-39 29-40 63 0 36 9 62 39 62" id="aa"/><path fill="#498a44" d="M185-48c-13 30-37 53-82 52C43 2 14-33 14-96s30-98 90-98c62 0 83 45 84 108H66c0 31 8 55 39 56 18 0 30-7 34-22zm-45-69c5-46-57-63-70-21-2 6-4 13-4 21h74" id="ab"/><g id="l"><use transform="matrix(0.044772138393537574,0,0,0.044772138393537574,0,0)" xlink:href="#X"/><use transform="matrix(0.044772138393537574,0,0,0.044772138393537574,3.8056317634506938,0)" xlink:href="#U"/><use transform="matrix(0.044772138393537574,0,0,0.044772138393537574,13.610730071635423,0)" xlink:href="#Y"/><use transform="matrix(0.044772138393537574,0,0,0.044772138393537574,22.565157750342937,0)" xlink:href="#Z"/><use transform="matrix(0.044772138393537574,0,0,0.044772138393537574,31.51958542905045,0)" xlink:href="#aa"/><use transform="matrix(0.044772138393537574,0,0,0.044772138393537574,41.324683737235176,0)" xlink:href="#ab"/><use transform="matrix(0.044772138393537574,0,0,0.044772138393537574,50.279111415942694,0)" xlink:href="#M"/><use transform="matrix(0.044772138393537574,0,0,0.044772138393537574,60.084209724127426,0)" xlink:href="#X"/></g><path fill="#498a44" d="M121-226c-27-7-43 5-38 36h38v33H83V0H34v-157H6v-33h28c-9-59 32-81 87-68v32" id="ac"/><g id="n"><use transform="matrix(0.044772138393537574,0,0,0.044772138393537574,0,0)" xlink:href="#ac"/><use transform="matrix(0.044772138393537574,0,0,0.044772138393537574,5.327884468830971,0)" xlink:href="#U"/><use transform="matrix(0.044772138393537574,0,0,0.044772138393537574,15.1329827770157,0)" xlink:href="#K"/></g><g id="o"><use transform="matrix(0.044772138393537574,0,0,0.044772138393537574,0,0)" xlink:href="#P"/><use transform="matrix(0.044772138393537574,0,0,0.044772138393537574,8.954427678707514,0)" xlink:href="#Q"/><use transform="matrix(0.044772138393537574,0,0,0.044772138393537574,18.759525986892243,0)" xlink:href="#R"/><use transform="matrix(0.044772138393537574,0,0,0.044772138393537574,27.713953665599757,0)" xlink:href="#K"/></g><g id="p"><use transform="matrix(0.044772138393537574,0,0,0.044772138393537574,0,0)" xlink:href="#L"/><use transform="matrix(0.044772138393537574,0,0,0.044772138393537574,4.477213839353757,0)" xlink:href="#M"/></g><path fill="#498a44" d="M35-132v-50h50v50H35zM35 0v-49h50V0H35" id="ad"/><g id="q"><use transform="matrix(0.044772138393537574,0,0,0.044772138393537574,0,0)" xlink:href="#T"/><use transform="matrix(0.044772138393537574,0,0,0.044772138393537574,12.53619875019052,0)" xlink:href="#U"/><use transform="matrix(0.044772138393537574,0,0,0.044772138393537574,22.341297058375247,0)" xlink:href="#K"/><use transform="matrix(0.044772138393537574,0,0,0.044772138393537574,28.609396433470508,0)" xlink:href="#V"/><use transform="matrix(0.044772138393537574,0,0,0.044772138393537574,38.41449474165523,0)" xlink:href="#ad"/></g><path d="M115-159c48 0 72 30 72 78 0 54-30 85-83 85-64 0-91-50-91-122 0-98 58-163 141-120 15 8 21 24 27 44l-47 6c-5-31-48-31-61-4-7 14-11 33-11 60 9-17 28-27 53-27zM102-35c24 0 36-20 36-45s-11-43-37-43c-23 0-36 14-36 38 0 27 11 50 37 50" id="ae"/><use transform="matrix(0.044772138393537574,0,0,0.044772138393537574,0,0)" xlink:href="#ae" id="r"/><path d="M139-81c0-46-55-55-73-27H18l9-140h149v37H72l-4 63c44-38 133-4 122 66C201 21 21 35 11-62l49-4c5 18 15 30 39 30 26 0 40-18 40-45" id="af"/><use transform="matrix(0.044772138393537574,0,0,0.044772138393537574,0,0)" xlink:href="#af" id="s"/><path d="M165-50V0h-47v-50H5v-38l105-160h55v161h33v37h-33zm-47-37l2-116L46-87h72" id="ag"/><use transform="matrix(0.044772138393537574,0,0,0.044772138393537574,0,0)" xlink:href="#ag" id="t"/><path d="M128-127c34 4 56 21 59 58 7 91-148 94-172 28-4-9-6-17-7-26l51-5c1 24 16 35 40 36 23 0 39-12 38-36-1-31-31-36-65-34v-40c32 2 59-3 59-33 0-20-13-33-34-33s-33 13-35 32l-50-3c6-44 37-68 86-68 50 0 83 20 83 66 0 35-22 52-53 58" id="ah"/><use transform="matrix(0.044772138393537574,0,0,0.044772138393537574,0,0)" xlink:href="#ah" id="u"/><path d="M182-182c0 78-84 86-111 141h115V0H12c-6-101 99-100 120-180 1-22-12-31-33-32-23 0-32 14-35 34l-49-3c5-45 32-70 84-70 51 0 83 22 83 69" id="ai"/><use transform="matrix(0.044772138393537574,0,0,0.044772138393537574,0,0)" xlink:href="#ai" id="v"/><path d="M206 0h-36l-40-164L89 0H53L-1-190h32L70-26l43-164h34l41 164 42-164h31" id="aj"/><path d="M85-194c31 0 48 13 60 33l-1-100h32l1 261h-30c-2-10 0-23-3-31C134-8 116 4 85 4 32 4 16-35 15-94c0-66 23-100 70-100zm9 24c-40 0-46 34-46 75 0 40 6 74 45 74 42 0 51-32 51-76 0-42-9-74-50-73" id="ak"/><g id="w"><use transform="matrix(0.044772138393537574,0,0,0.044772138393537574,0,0)" xlink:href="#aj"/><use transform="matrix(0.044772138393537574,0,0,0.044772138393537574,11.595983843926232,0)" xlink:href="#y"/><use transform="matrix(0.044772138393537574,0,0,0.044772138393537574,20.550411522633745,0)" xlink:href="#H"/><use transform="matrix(0.044772138393537574,0,0,0.044772138393537574,25.878295991464718,0)" xlink:href="#ak"/></g><path d="M18-150v-26h174v26H18zm0 90v-26h174v26H18" id="al"/><use transform="matrix(0.044772138393537574,0,0,0.044772138393537574,0,0)" xlink:href="#al" id="x"/></defs></g></svg>