<?xml version="1.0" encoding="UTF-8" standalone="no"?>
<svg
   xmlns:ooo="http://xml.openoffice.org/svg/export"
   xmlns:dc="http://purl.org/dc/elements/1.1/"
   xmlns:cc="http://creativecommons.org/ns#"
   xmlns:rdf="http://www.w3.org/1999/02/22-rdf-syntax-ns#"
   xmlns:svg="http://www.w3.org/2000/svg"
   xmlns="http://www.w3.org/2000/svg"
   xmlns:sodipodi="http://sodipodi.sourceforge.net/DTD/sodipodi-0.dtd"
   xmlns:inkscape="http://www.inkscape.org/namespaces/inkscape"
   version="1.2"
   width="342.37863"
   height="154.1693"
   viewBox="0 0 9662.6858 4351.0001"
   preserveAspectRatio="xMidYMid"
   clip-path="url(#presentation_clip_path)"
   xml:space="preserve"
   id="svg2"
   inkscape:version="0.48.2 r9819"
   sodipodi:docname="python-overlapping-ranges.svg"
   style="fill-rule:evenodd;stroke-width:28.22200012;stroke-linejoin:round"><metadata
   id="metadata574"><rdf:RDF><cc:Work
       rdf:about=""><dc:format>image/svg+xml</dc:format><dc:type
         rdf:resource="http://purl.org/dc/dcmitype/StillImage" /></cc:Work></rdf:RDF></metadata><sodipodi:namedview
   pagecolor="#ffffff"
   bordercolor="#666666"
   borderopacity="1"
   objecttolerance="10"
   gridtolerance="10"
   guidetolerance="10"
   inkscape:pageopacity="0"
   inkscape:pageshadow="2"
   inkscape:window-width="640"
   inkscape:window-height="480"
   id="namedview572"
   showgrid="false"
   fit-margin-top="0"
   fit-margin-left="0"
   fit-margin-right="0"
   fit-margin-bottom="0"
   inkscape:zoom="0.23838384"
   inkscape:cx="341.31563"
   inkscape:cy="-292.11024"
   inkscape:window-x="0"
   inkscape:window-y="0"
   inkscape:window-maximized="0"
   inkscape:current-layer="svg2" />
 <defs
   class="ClipPathGroup"
   id="defs4">
  <clipPath
   id="presentation_clip_path"
   clipPathUnits="userSpaceOnUse">
   <rect
   x="0"
   y="0"
   width="21590"
   height="27940"
   id="rect7" />
  </clipPath>
 </defs>
 <defs
   class="TextShapeIndex"
   id="defs9">
  <g
   ooo:slide="id1"
   ooo:id-list="id3 id4 id5 id6 id7 id8 id9 id10 id11 id12 id13 id14 id15 id16 id17 id18 id19 id20 id21 id22 id23 id24 id25 id26"
   id="g11" />
 </defs>
 <defs
   class="EmbeddedBulletChars"
   id="defs13">
  <g
   id="bullet-char-template(57356)"
   transform="scale(4.8828125e-4,-4.8828125e-4)">
   <path
   d="M 580,1141 1163,571 580,0 -4,571 580,1141 z"
   id="path16"
   inkscape:connector-curvature="0" />
  </g>
  <g
   id="bullet-char-template(57354)"
   transform="scale(4.8828125e-4,-4.8828125e-4)">
   <path
   d="m 8,1128 1129,0 L 1137,0 8,0 8,1128 z"
   id="path19"
   inkscape:connector-curvature="0" />
  </g>
  <g
   id="bullet-char-template(10146)"
   transform="scale(4.8828125e-4,-4.8828125e-4)">
   <path
   d="M 174,0 602,739 174,1481 1456,739 174,0 z m 1184,739 -1049,607 350,-607 699,0 z"
   id="path22"
   inkscape:connector-curvature="0" />
  </g>
  <g
   id="bullet-char-template(10132)"
   transform="scale(4.8828125e-4,-4.8828125e-4)">
   <path
   d="M 2015,739 1276,0 717,0 l 543,543 -1086,0 0,393 1086,0 -543,545 557,0 741,-742 z"
   id="path25"
   inkscape:connector-curvature="0" />
  </g>
  <g
   id="bullet-char-template(10007)"
   transform="scale(4.8828125e-4,-4.8828125e-4)">
   <path
   d="m 0,-2 c -7,16 -16,29 -25,39 l 381,530 c -94,256 -141,385 -141,387 0,25 13,38 40,38 9,0 21,-2 34,-5 21,4 42,12 65,25 l 27,-13 111,-251 280,301 64,-25 24,25 c 21,-10 41,-24 62,-43 C 886,937 835,863 770,784 769,783 710,716 594,584 L 774,223 c 0,-27 -21,-55 -63,-84 l 16,-20 C 717,90 699,76 672,76 641,76 570,178 457,381 L 164,-76 c -22,-34 -53,-51 -92,-51 -42,0 -63,17 -64,51 -7,9 -10,24 -10,44 0,9 1,19 2,30 z"
   id="path28"
   inkscape:connector-curvature="0" />
  </g>
  <g
   id="bullet-char-template(10004)"
   transform="scale(4.8828125e-4,-4.8828125e-4)">
   <path
   d="M 285,-33 C 182,-33 111,30 74,156 52,228 41,333 41,471 c 0,78 14,145 41,201 34,71 87,106 158,106 53,0 88,-31 106,-94 l 23,-176 c 8,-64 28,-97 59,-98 l 735,706 c 11,11 33,17 66,17 42,0 63,-15 63,-46 l 0,-122 c 0,-36 -10,-64 -30,-84 L 442,47 C 390,-6 338,-33 285,-33 z"
   id="path31"
   inkscape:connector-curvature="0" />
  </g>
  <g
   id="bullet-char-template(9679)"
   transform="scale(4.8828125e-4,-4.8828125e-4)">
   <path
   d="M 813,0 C 632,0 489,54 383,161 276,268 223,411 223,592 c 0,181 53,324 160,431 106,107 249,161 430,161 179,0 323,-54 432,-161 108,-107 162,-251 162,-431 0,-180 -54,-324 -162,-431 C 1136,54 992,0 813,0 z"
   id="path34"
   inkscape:connector-curvature="0" />
  </g>
  <g
   id="bullet-char-template(8226)"
   transform="scale(4.8828125e-4,-4.8828125e-4)">
   <path
   d="m 346,457 c -73,0 -137,26 -191,78 -54,51 -81,114 -81,188 0,73 27,136 81,188 54,52 118,78 191,78 73,0 134,-26 185,-79 51,-51 77,-114 77,-187 0,-75 -25,-137 -76,-188 -50,-52 -112,-78 -186,-78 z"
   id="path37"
   inkscape:connector-curvature="0" />
  </g>
  <g
   id="bullet-char-template(8211)"
   transform="scale(4.8828125e-4,-4.8828125e-4)">
   <path
   d="m -4,459 1139,0 0,147 -1139,0 0,-147 z"
   id="path40"
   inkscape:connector-curvature="0" />
  </g>
 </defs>
 <defs
   class="TextEmbeddedBitmaps"
   id="defs42" />
 <g
   id="g44"
   transform="translate(-1162.3145,-1375)">
  <g
   id="id2"
   class="Master_Slide">
   <g
   id="bg-id2"
   class="Background" />
   <g
   id="bo-id2"
   class="BackgroundObjects" />
  </g>
 </g>
 <g
   class="SlideGroup"
   id="g49"
   transform="translate(-1162.3145,-1375)">
  <g
   id="g51">
   <g
   id="id1"
   class="Slide"
   clip-path="url(#presentation_clip_path)">
    <g
   class="Page"
   id="g54">
     <g
   class="com.sun.star.drawing.TextShape"
   id="g56">
      <g
   id="id3">
       <text
   class="TextShape"
   id="text59"><tspan
     class="TextParagraph"
     font-size="388px"
     font-weight="400"
     id="tspan61"
     style="font-size:388px;font-weight:400;font-family:'Arial, sans-serif'"><tspan
       class="TextPosition"
       x="1150"
       y="1976"
       id="tspan63"><tspan
         id="tspan65"
         style="fill:#000000;stroke:none">-3.0</tspan></tspan></tspan></text>

      </g>
     </g>
     <g
   class="com.sun.star.drawing.LineShape"
   id="g67">
      <g
   id="id4">
       <path
   d="m 2000,2000 8000,0"
   id="path70"
   inkscape:connector-curvature="0"
   style="fill:none;stroke:#000000;stroke-width:50" />
      </g>
     </g>
     <g
   class="com.sun.star.drawing.LineShape"
   id="g72">
      <g
   id="id5">
       <path
   d="m 2000,1700 0,300"
   id="path75"
   inkscape:connector-curvature="0"
   style="fill:none;stroke:#000000;stroke-width:50" />
      </g>
     </g>
     <g
   class="com.sun.star.drawing.LineShape"
   id="g77">
      <g
   id="id6">
       <path
   d="m 10000,1700 0,300"
   id="path80"
   inkscape:connector-curvature="0"
   style="fill:none;stroke:#000000;stroke-width:50" />
      </g>
     </g>
     <g
   class="com.sun.star.drawing.TextShape"
   id="g82">
      <g
   id="id7">
       <text
   class="TextShape"
   id="text85"><tspan
     class="TextParagraph"
     font-size="388px"
     font-weight="400"
     id="tspan87"
     style="font-size:388px;font-weight:400;font-family:'Arial, sans-serif'"><tspan
       class="TextPosition"
       x="10251"
       y="1977"
       id="tspan89"><tspan
         id="tspan91"
         style="fill:#000000;stroke:none">5.0</tspan></tspan></tspan></text>

      </g>
     </g>
     <g
   class="com.sun.star.drawing.TextShape"
   id="g93">
      <g
   id="id8">
       <text
   class="TextShape"
   id="text96"><tspan
     class="TextParagraph"
     font-size="388px"
     font-weight="400"
     id="tspan98"
     style="font-size:388px;font-weight:400;font-family:'Arial, sans-serif'"><tspan
       class="TextPosition"
       x="4250"
       y="2976"
       id="tspan100"><tspan
         id="tspan102"
         style="fill:#000000;stroke:none">0.0</tspan></tspan></tspan></text>

      </g>
     </g>
     <g
   class="com.sun.star.drawing.LineShape"
   id="g104">
      <g
   id="id9">
       <path
   d="m 5000,3000 4500,0"
   id="path107"
   inkscape:connector-curvature="0"
   style="fill:none;stroke:#000000;stroke-width:50" />
      </g>
     </g>
     <g
   class="com.sun.star.drawing.LineShape"
   id="g109">
      <g
   id="id10">
       <path
   d="m 5000,2700 0,300"
   id="path112"
   inkscape:connector-curvature="0"
   style="fill:none;stroke:#000000;stroke-width:50" />
      </g>
     </g>
     <g
   class="com.sun.star.drawing.LineShape"
   id="g114">
      <g
   id="id11">
       <path
   d="m 9500,2700 0,300"
   id="path117"
   inkscape:connector-curvature="0"
   style="fill:none;stroke:#000000;stroke-width:50" />
      </g>
     </g>
     <g
   class="com.sun.star.drawing.TextShape"
   id="g119">
      <g
   id="id12">
       <text
   class="TextShape"
   id="text122"><tspan
     class="TextParagraph"
     font-size="388px"
     font-weight="400"
     id="tspan124"
     style="font-size:388px;font-weight:400;font-family:'Arial, sans-serif'"><tspan
       class="TextPosition"
       x="9751"
       y="2977"
       id="tspan126"><tspan
         id="tspan128"
         style="fill:#000000;stroke:none">4.5</tspan></tspan></tspan></text>

      </g>
     </g>
     <g
   class="com.sun.star.drawing.TextShape"
   id="g130">
      <g
   id="id13">
       <text
   class="TextShape"
   id="text133"><tspan
     class="TextParagraph"
     font-size="388px"
     font-weight="400"
     id="tspan135"
     style="font-size:388px;font-weight:400;font-family:'Arial, sans-serif'"><tspan
       class="TextPosition"
       x="2609"
       y="3976"
       id="tspan137"><tspan
         id="tspan139"
         style="fill:#000000;stroke:none">-1.5</tspan></tspan></tspan></text>

      </g>
     </g>
     <g
   class="com.sun.star.drawing.LineShape"
   id="g141">
      <g
   id="id14">
       <path
   d="m 3500,4000 3500,0"
   id="path144"
   inkscape:connector-curvature="0"
   style="fill:none;stroke:#000000;stroke-width:50" />
      </g>
     </g>
     <g
   class="com.sun.star.drawing.LineShape"
   id="g146">
      <g
   id="id15">
       <path
   d="m 3500,3700 0,300"
   id="path149"
   inkscape:connector-curvature="0"
   style="fill:none;stroke:#000000;stroke-width:50" />
      </g>
     </g>
     <g
   class="com.sun.star.drawing.LineShape"
   id="g151">
      <g
   id="id16">
       <path
   d="m 7000,3700 0,300"
   id="path154"
   inkscape:connector-curvature="0"
   style="fill:none;stroke:#000000;stroke-width:50" />
      </g>
     </g>
     <g
   class="com.sun.star.drawing.TextShape"
   id="g156">
      <g
   id="id17">
       <text
   class="TextShape"
   id="text159"><tspan
     class="TextParagraph"
     font-size="388px"
     font-weight="400"
     id="tspan161"
     style="font-size:388px;font-weight:400;font-family:'Arial, sans-serif'"><tspan
       class="TextPosition"
       x="7210"
       y="3977"
       id="tspan163"><tspan
         id="tspan165"
         style="fill:#000000;stroke:none">2.0</tspan></tspan></tspan></text>

      </g>
     </g>
     <g
   class="com.sun.star.drawing.LineShape"
   id="g167">
      <g
   id="id18">
       <path
   d="m 5000,1400 0,51"
   id="path170"
   inkscape:connector-curvature="0"
   style="fill:none;stroke:#c0c0c0;stroke-width:50" />
       <path
   d="m 5000,1502 0,51"
   id="path172"
   inkscape:connector-curvature="0"
   style="fill:none;stroke:#c0c0c0;stroke-width:50" />
       <path
   d="m 5000,1604 0,51"
   id="path174"
   inkscape:connector-curvature="0"
   style="fill:none;stroke:#c0c0c0;stroke-width:50" />
       <path
   d="m 5000,1706 0,51"
   id="path176"
   inkscape:connector-curvature="0"
   style="fill:none;stroke:#c0c0c0;stroke-width:50" />
       <path
   d="m 5000,1808 0,51"
   id="path178"
   inkscape:connector-curvature="0"
   style="fill:none;stroke:#c0c0c0;stroke-width:50" />
       <path
   d="m 5000,1910 0,51"
   id="path180"
   inkscape:connector-curvature="0"
   style="fill:none;stroke:#c0c0c0;stroke-width:50" />
       <path
   d="m 5000,2012 0,51"
   id="path182"
   inkscape:connector-curvature="0"
   style="fill:none;stroke:#c0c0c0;stroke-width:50" />
       <path
   d="m 5000,2114 0,51"
   id="path184"
   inkscape:connector-curvature="0"
   style="fill:none;stroke:#c0c0c0;stroke-width:50" />
       <path
   d="m 5000,2216 0,51"
   id="path186"
   inkscape:connector-curvature="0"
   style="fill:none;stroke:#c0c0c0;stroke-width:50" />
       <path
   d="m 5000,2318 0,51"
   id="path188"
   inkscape:connector-curvature="0"
   style="fill:none;stroke:#c0c0c0;stroke-width:50" />
       <path
   d="m 5000,2420 0,51"
   id="path190"
   inkscape:connector-curvature="0"
   style="fill:none;stroke:#c0c0c0;stroke-width:50" />
       <path
   d="m 5000,2522 0,51"
   id="path192"
   inkscape:connector-curvature="0"
   style="fill:none;stroke:#c0c0c0;stroke-width:50" />
       <path
   d="m 5000,2624 0,51"
   id="path194"
   inkscape:connector-curvature="0"
   style="fill:none;stroke:#c0c0c0;stroke-width:50" />
       <path
   d="m 5000,2726 0,51"
   id="path196"
   inkscape:connector-curvature="0"
   style="fill:none;stroke:#c0c0c0;stroke-width:50" />
       <path
   d="m 5000,2828 0,51"
   id="path198"
   inkscape:connector-curvature="0"
   style="fill:none;stroke:#c0c0c0;stroke-width:50" />
       <path
   d="m 5000,2930 0,51"
   id="path200"
   inkscape:connector-curvature="0"
   style="fill:none;stroke:#c0c0c0;stroke-width:50" />
       <path
   d="m 5000,3032 0,51"
   id="path202"
   inkscape:connector-curvature="0"
   style="fill:none;stroke:#c0c0c0;stroke-width:50" />
       <path
   d="m 5000,3134 0,51"
   id="path204"
   inkscape:connector-curvature="0"
   style="fill:none;stroke:#c0c0c0;stroke-width:50" />
       <path
   d="m 5000,3236 0,51"
   id="path206"
   inkscape:connector-curvature="0"
   style="fill:none;stroke:#c0c0c0;stroke-width:50" />
       <path
   d="m 5000,3338 0,51"
   id="path208"
   inkscape:connector-curvature="0"
   style="fill:none;stroke:#c0c0c0;stroke-width:50" />
       <path
   d="m 5000,3440 0,51"
   id="path210"
   inkscape:connector-curvature="0"
   style="fill:none;stroke:#c0c0c0;stroke-width:50" />
       <path
   d="m 5000,3542 0,51"
   id="path212"
   inkscape:connector-curvature="0"
   style="fill:none;stroke:#c0c0c0;stroke-width:50" />
       <path
   d="m 5000,3644 0,51"
   id="path214"
   inkscape:connector-curvature="0"
   style="fill:none;stroke:#c0c0c0;stroke-width:50" />
       <path
   d="m 5000,3746 0,51"
   id="path216"
   inkscape:connector-curvature="0"
   style="fill:none;stroke:#c0c0c0;stroke-width:50" />
       <path
   d="m 5000,3848 0,51"
   id="path218"
   inkscape:connector-curvature="0"
   style="fill:none;stroke:#c0c0c0;stroke-width:50" />
       <path
   d="m 5000,3950 0,51"
   id="path220"
   inkscape:connector-curvature="0"
   style="fill:none;stroke:#c0c0c0;stroke-width:50" />
       <path
   d="m 5000,4052 0,51"
   id="path222"
   inkscape:connector-curvature="0"
   style="fill:none;stroke:#c0c0c0;stroke-width:50" />
       <path
   d="m 5000,4154 0,51"
   id="path224"
   inkscape:connector-curvature="0"
   style="fill:none;stroke:#c0c0c0;stroke-width:50" />
       <path
   d="m 5000,4256 0,51"
   id="path226"
   inkscape:connector-curvature="0"
   style="fill:none;stroke:#c0c0c0;stroke-width:50" />
       <path
   d="m 5000,4358 0,51"
   id="path228"
   inkscape:connector-curvature="0"
   style="fill:none;stroke:#c0c0c0;stroke-width:50" />
       <path
   d="m 5000,4460 0,51"
   id="path230"
   inkscape:connector-curvature="0"
   style="fill:none;stroke:#c0c0c0;stroke-width:50" />
       <path
   d="m 5000,4562 0,51"
   id="path232"
   inkscape:connector-curvature="0"
   style="fill:none;stroke:#c0c0c0;stroke-width:50" />
       <path
   d="m 5000,4664 0,51"
   id="path234"
   inkscape:connector-curvature="0"
   style="fill:none;stroke:#c0c0c0;stroke-width:50" />
       <path
   d="m 5000,4766 0,51"
   id="path236"
   inkscape:connector-curvature="0"
   style="fill:none;stroke:#c0c0c0;stroke-width:50" />
       <path
   d="m 5000,4868 0,51"
   id="path238"
   inkscape:connector-curvature="0"
   style="fill:none;stroke:#c0c0c0;stroke-width:50" />
       <path
   d="m 5000,4970 0,51"
   id="path240"
   inkscape:connector-curvature="0"
   style="fill:none;stroke:#c0c0c0;stroke-width:50" />
       <path
   d="m 5000,5072 0,51"
   id="path242"
   inkscape:connector-curvature="0"
   style="fill:none;stroke:#c0c0c0;stroke-width:50" />
       <path
   d="m 5000,5174 0,51"
   id="path244"
   inkscape:connector-curvature="0"
   style="fill:none;stroke:#c0c0c0;stroke-width:50" />
       <path
   d="m 5000,5276 0,51"
   id="path246"
   inkscape:connector-curvature="0"
   style="fill:none;stroke:#c0c0c0;stroke-width:50" />
       <path
   d="m 5000,5378 0,51"
   id="path248"
   inkscape:connector-curvature="0"
   style="fill:none;stroke:#c0c0c0;stroke-width:50" />
       <path
   d="m 5000,5480 0,51"
   id="path250"
   inkscape:connector-curvature="0"
   style="fill:none;stroke:#c0c0c0;stroke-width:50" />
       <path
   d="m 5000,5582 0,51"
   id="path252"
   inkscape:connector-curvature="0"
   style="fill:none;stroke:#c0c0c0;stroke-width:50" />
       <path
   d="m 5000,5684 0,16"
   id="path254"
   inkscape:connector-curvature="0"
   style="fill:none;stroke:#c0c0c0;stroke-width:50" />
      </g>
     </g>
     <g
   class="com.sun.star.drawing.LineShape"
   id="g256">
      <g
   id="id19">
       <path
   d="m 7000,1400 0,51"
   id="path259"
   inkscape:connector-curvature="0"
   style="fill:none;stroke:#c0c0c0;stroke-width:50" />
       <path
   d="m 7000,1502 0,51"
   id="path261"
   inkscape:connector-curvature="0"
   style="fill:none;stroke:#c0c0c0;stroke-width:50" />
       <path
   d="m 7000,1604 0,51"
   id="path263"
   inkscape:connector-curvature="0"
   style="fill:none;stroke:#c0c0c0;stroke-width:50" />
       <path
   d="m 7000,1706 0,51"
   id="path265"
   inkscape:connector-curvature="0"
   style="fill:none;stroke:#c0c0c0;stroke-width:50" />
       <path
   d="m 7000,1808 0,51"
   id="path267"
   inkscape:connector-curvature="0"
   style="fill:none;stroke:#c0c0c0;stroke-width:50" />
       <path
   d="m 7000,1910 0,51"
   id="path269"
   inkscape:connector-curvature="0"
   style="fill:none;stroke:#c0c0c0;stroke-width:50" />
       <path
   d="m 7000,2012 0,51"
   id="path271"
   inkscape:connector-curvature="0"
   style="fill:none;stroke:#c0c0c0;stroke-width:50" />
       <path
   d="m 7000,2114 0,51"
   id="path273"
   inkscape:connector-curvature="0"
   style="fill:none;stroke:#c0c0c0;stroke-width:50" />
       <path
   d="m 7000,2216 0,51"
   id="path275"
   inkscape:connector-curvature="0"
   style="fill:none;stroke:#c0c0c0;stroke-width:50" />
       <path
   d="m 7000,2318 0,51"
   id="path277"
   inkscape:connector-curvature="0"
   style="fill:none;stroke:#c0c0c0;stroke-width:50" />
       <path
   d="m 7000,2420 0,51"
   id="path279"
   inkscape:connector-curvature="0"
   style="fill:none;stroke:#c0c0c0;stroke-width:50" />
       <path
   d="m 7000,2522 0,51"
   id="path281"
   inkscape:connector-curvature="0"
   style="fill:none;stroke:#c0c0c0;stroke-width:50" />
       <path
   d="m 7000,2624 0,51"
   id="path283"
   inkscape:connector-curvature="0"
   style="fill:none;stroke:#c0c0c0;stroke-width:50" />
       <path
   d="m 7000,2726 0,51"
   id="path285"
   inkscape:connector-curvature="0"
   style="fill:none;stroke:#c0c0c0;stroke-width:50" />
       <path
   d="m 7000,2828 0,51"
   id="path287"
   inkscape:connector-curvature="0"
   style="fill:none;stroke:#c0c0c0;stroke-width:50" />
       <path
   d="m 7000,2930 0,51"
   id="path289"
   inkscape:connector-curvature="0"
   style="fill:none;stroke:#c0c0c0;stroke-width:50" />
       <path
   d="m 7000,3032 0,51"
   id="path291"
   inkscape:connector-curvature="0"
   style="fill:none;stroke:#c0c0c0;stroke-width:50" />
       <path
   d="m 7000,3134 0,51"
   id="path293"
   inkscape:connector-curvature="0"
   style="fill:none;stroke:#c0c0c0;stroke-width:50" />
       <path
   d="m 7000,3236 0,51"
   id="path295"
   inkscape:connector-curvature="0"
   style="fill:none;stroke:#c0c0c0;stroke-width:50" />
       <path
   d="m 7000,3338 0,51"
   id="path297"
   inkscape:connector-curvature="0"
   style="fill:none;stroke:#c0c0c0;stroke-width:50" />
       <path
   d="m 7000,3440 0,51"
   id="path299"
   inkscape:connector-curvature="0"
   style="fill:none;stroke:#c0c0c0;stroke-width:50" />
       <path
   d="m 7000,3542 0,51"
   id="path301"
   inkscape:connector-curvature="0"
   style="fill:none;stroke:#c0c0c0;stroke-width:50" />
       <path
   d="m 7000,3644 0,51"
   id="path303"
   inkscape:connector-curvature="0"
   style="fill:none;stroke:#c0c0c0;stroke-width:50" />
       <path
   d="m 7000,3746 0,51"
   id="path305"
   inkscape:connector-curvature="0"
   style="fill:none;stroke:#c0c0c0;stroke-width:50" />
       <path
   d="m 7000,3848 0,51"
   id="path307"
   inkscape:connector-curvature="0"
   style="fill:none;stroke:#c0c0c0;stroke-width:50" />
       <path
   d="m 7000,3950 0,51"
   id="path309"
   inkscape:connector-curvature="0"
   style="fill:none;stroke:#c0c0c0;stroke-width:50" />
       <path
   d="m 7000,4052 0,51"
   id="path311"
   inkscape:connector-curvature="0"
   style="fill:none;stroke:#c0c0c0;stroke-width:50" />
       <path
   d="m 7000,4154 0,51"
   id="path313"
   inkscape:connector-curvature="0"
   style="fill:none;stroke:#c0c0c0;stroke-width:50" />
       <path
   d="m 7000,4256 0,51"
   id="path315"
   inkscape:connector-curvature="0"
   style="fill:none;stroke:#c0c0c0;stroke-width:50" />
       <path
   d="m 7000,4358 0,51"
   id="path317"
   inkscape:connector-curvature="0"
   style="fill:none;stroke:#c0c0c0;stroke-width:50" />
       <path
   d="m 7000,4460 0,51"
   id="path319"
   inkscape:connector-curvature="0"
   style="fill:none;stroke:#c0c0c0;stroke-width:50" />
       <path
   d="m 7000,4562 0,51"
   id="path321"
   inkscape:connector-curvature="0"
   style="fill:none;stroke:#c0c0c0;stroke-width:50" />
       <path
   d="m 7000,4664 0,51"
   id="path323"
   inkscape:connector-curvature="0"
   style="fill:none;stroke:#c0c0c0;stroke-width:50" />
       <path
   d="m 7000,4766 0,51"
   id="path325"
   inkscape:connector-curvature="0"
   style="fill:none;stroke:#c0c0c0;stroke-width:50" />
       <path
   d="m 7000,4868 0,51"
   id="path327"
   inkscape:connector-curvature="0"
   style="fill:none;stroke:#c0c0c0;stroke-width:50" />
       <path
   d="m 7000,4970 0,51"
   id="path329"
   inkscape:connector-curvature="0"
   style="fill:none;stroke:#c0c0c0;stroke-width:50" />
       <path
   d="m 7000,5072 0,51"
   id="path331"
   inkscape:connector-curvature="0"
   style="fill:none;stroke:#c0c0c0;stroke-width:50" />
       <path
   d="m 7000,5174 0,51"
   id="path333"
   inkscape:connector-curvature="0"
   style="fill:none;stroke:#c0c0c0;stroke-width:50" />
       <path
   d="m 7000,5276 0,51"
   id="path335"
   inkscape:connector-curvature="0"
   style="fill:none;stroke:#c0c0c0;stroke-width:50" />
       <path
   d="m 7000,5378 0,51"
   id="path337"
   inkscape:connector-curvature="0"
   style="fill:none;stroke:#c0c0c0;stroke-width:50" />
       <path
   d="m 7000,5480 0,51"
   id="path339"
   inkscape:connector-curvature="0"
   style="fill:none;stroke:#c0c0c0;stroke-width:50" />
       <path
   d="m 7000,5582 0,51"
   id="path341"
   inkscape:connector-curvature="0"
   style="fill:none;stroke:#c0c0c0;stroke-width:50" />
       <path
   d="m 7000,5684 0,16"
   id="path343"
   inkscape:connector-curvature="0"
   style="fill:none;stroke:#c0c0c0;stroke-width:50" />
      </g>
     </g>
     <g
   class="com.sun.star.drawing.LineShape"
   id="g345">
      <g
   id="id20">
       <path
   d="m 5000,5700 2000,0"
   id="path348"
   inkscape:connector-curvature="0"
   style="fill:none;stroke:#000000;stroke-width:50" />
      </g>
     </g>
     <g
   class="com.sun.star.drawing.LineShape"
   id="g350">
      <g
   id="id21">
       <path
   d="m 5000,5400 0,300"
   id="path353"
   inkscape:connector-curvature="0"
   style="fill:none;stroke:#000000;stroke-width:50" />
      </g>
     </g>
     <g
   class="com.sun.star.drawing.LineShape"
   id="g355">
      <g
   id="id22">
       <path
   d="m 7000,5400 0,300"
   id="path358"
   inkscape:connector-curvature="0"
   style="fill:none;stroke:#000000;stroke-width:50" />
      </g>
     </g>
     <g
   class="com.sun.star.drawing.TextShape"
   id="g360">
      <g
   id="id23">
       <text
   class="TextShape"
   id="text363"><tspan
     class="TextParagraph"
     font-size="388px"
     font-weight="400"
     id="tspan365"
     style="font-size:388px;font-weight:400;font-family:'Arial, sans-serif'"><tspan
       class="TextPosition"
       x="4250"
       y="5677"
       id="tspan367"><tspan
         id="tspan369"
         style="fill:#000000;stroke:none">0.0</tspan></tspan></tspan></text>

      </g>
     </g>
     <g
   class="com.sun.star.drawing.LineShape"
   id="g371">
      <g
   id="id24">
       <path
   d="m 7000,5401 0,300"
   id="path374"
   inkscape:connector-curvature="0"
   style="fill:none;stroke:#000000;stroke-width:50" />
      </g>
     </g>
     <g
   class="com.sun.star.drawing.TextShape"
   id="g376">
      <g
   id="id25">
       <text
   class="TextShape"
   id="text379"><tspan
     class="TextParagraph"
     font-size="388px"
     font-weight="400"
     id="tspan381"
     style="font-size:388px;font-weight:400;font-family:'Arial, sans-serif'"><tspan
       class="TextPosition"
       x="7210"
       y="5678"
       id="tspan383"><tspan
         id="tspan385"
         style="fill:#000000;stroke:none">2.0</tspan></tspan></tspan></text>

      </g>
     </g>
     <g
   class="com.sun.star.drawing.LineShape"
   id="g387">
      <g
   id="id26">
       <path
   d="m 1600,4800 51,0"
   id="path390"
   inkscape:connector-curvature="0"
   style="fill:none;stroke:#c0c0c0;stroke-width:50" />
       <path
   d="m 1702,4800 51,0"
   id="path392"
   inkscape:connector-curvature="0"
   style="fill:none;stroke:#c0c0c0;stroke-width:50" />
       <path
   d="m 1804,4800 51,0"
   id="path394"
   inkscape:connector-curvature="0"
   style="fill:none;stroke:#c0c0c0;stroke-width:50" />
       <path
   d="m 1906,4800 51,0"
   id="path396"
   inkscape:connector-curvature="0"
   style="fill:none;stroke:#c0c0c0;stroke-width:50" />
       <path
   d="m 2008,4800 51,0"
   id="path398"
   inkscape:connector-curvature="0"
   style="fill:none;stroke:#c0c0c0;stroke-width:50" />
       <path
   d="m 2110,4800 51,0"
   id="path400"
   inkscape:connector-curvature="0"
   style="fill:none;stroke:#c0c0c0;stroke-width:50" />
       <path
   d="m 2212,4800 51,0"
   id="path402"
   inkscape:connector-curvature="0"
   style="fill:none;stroke:#c0c0c0;stroke-width:50" />
       <path
   d="m 2314,4800 51,0"
   id="path404"
   inkscape:connector-curvature="0"
   style="fill:none;stroke:#c0c0c0;stroke-width:50" />
       <path
   d="m 2416,4800 51,0"
   id="path406"
   inkscape:connector-curvature="0"
   style="fill:none;stroke:#c0c0c0;stroke-width:50" />
       <path
   d="m 2518,4800 51,0"
   id="path408"
   inkscape:connector-curvature="0"
   style="fill:none;stroke:#c0c0c0;stroke-width:50" />
       <path
   d="m 2620,4800 51,0"
   id="path410"
   inkscape:connector-curvature="0"
   style="fill:none;stroke:#c0c0c0;stroke-width:50" />
       <path
   d="m 2722,4800 51,0"
   id="path412"
   inkscape:connector-curvature="0"
   style="fill:none;stroke:#c0c0c0;stroke-width:50" />
       <path
   d="m 2824,4800 51,0"
   id="path414"
   inkscape:connector-curvature="0"
   style="fill:none;stroke:#c0c0c0;stroke-width:50" />
       <path
   d="m 2926,4800 51,0"
   id="path416"
   inkscape:connector-curvature="0"
   style="fill:none;stroke:#c0c0c0;stroke-width:50" />
       <path
   d="m 3028,4800 51,0"
   id="path418"
   inkscape:connector-curvature="0"
   style="fill:none;stroke:#c0c0c0;stroke-width:50" />
       <path
   d="m 3130,4800 51,0"
   id="path420"
   inkscape:connector-curvature="0"
   style="fill:none;stroke:#c0c0c0;stroke-width:50" />
       <path
   d="m 3232,4800 51,0"
   id="path422"
   inkscape:connector-curvature="0"
   style="fill:none;stroke:#c0c0c0;stroke-width:50" />
       <path
   d="m 3334,4800 51,0"
   id="path424"
   inkscape:connector-curvature="0"
   style="fill:none;stroke:#c0c0c0;stroke-width:50" />
       <path
   d="m 3436,4800 51,0"
   id="path426"
   inkscape:connector-curvature="0"
   style="fill:none;stroke:#c0c0c0;stroke-width:50" />
       <path
   d="m 3538,4800 51,0"
   id="path428"
   inkscape:connector-curvature="0"
   style="fill:none;stroke:#c0c0c0;stroke-width:50" />
       <path
   d="m 3640,4800 51,0"
   id="path430"
   inkscape:connector-curvature="0"
   style="fill:none;stroke:#c0c0c0;stroke-width:50" />
       <path
   d="m 3742,4800 51,0"
   id="path432"
   inkscape:connector-curvature="0"
   style="fill:none;stroke:#c0c0c0;stroke-width:50" />
       <path
   d="m 3844,4800 51,0"
   id="path434"
   inkscape:connector-curvature="0"
   style="fill:none;stroke:#c0c0c0;stroke-width:50" />
       <path
   d="m 3946,4800 51,0"
   id="path436"
   inkscape:connector-curvature="0"
   style="fill:none;stroke:#c0c0c0;stroke-width:50" />
       <path
   d="m 4048,4800 51,0"
   id="path438"
   inkscape:connector-curvature="0"
   style="fill:none;stroke:#c0c0c0;stroke-width:50" />
       <path
   d="m 4150,4800 51,0"
   id="path440"
   inkscape:connector-curvature="0"
   style="fill:none;stroke:#c0c0c0;stroke-width:50" />
       <path
   d="m 4252,4800 51,0"
   id="path442"
   inkscape:connector-curvature="0"
   style="fill:none;stroke:#c0c0c0;stroke-width:50" />
       <path
   d="m 4354,4800 51,0"
   id="path444"
   inkscape:connector-curvature="0"
   style="fill:none;stroke:#c0c0c0;stroke-width:50" />
       <path
   d="m 4456,4800 51,0"
   id="path446"
   inkscape:connector-curvature="0"
   style="fill:none;stroke:#c0c0c0;stroke-width:50" />
       <path
   d="m 4558,4800 51,0"
   id="path448"
   inkscape:connector-curvature="0"
   style="fill:none;stroke:#c0c0c0;stroke-width:50" />
       <path
   d="m 4660,4800 51,0"
   id="path450"
   inkscape:connector-curvature="0"
   style="fill:none;stroke:#c0c0c0;stroke-width:50" />
       <path
   d="m 4762,4800 51,0"
   id="path452"
   inkscape:connector-curvature="0"
   style="fill:none;stroke:#c0c0c0;stroke-width:50" />
       <path
   d="m 4864,4800 51,0"
   id="path454"
   inkscape:connector-curvature="0"
   style="fill:none;stroke:#c0c0c0;stroke-width:50" />
       <path
   d="m 4966,4800 51,0"
   id="path456"
   inkscape:connector-curvature="0"
   style="fill:none;stroke:#c0c0c0;stroke-width:50" />
       <path
   d="m 5068,4800 51,0"
   id="path458"
   inkscape:connector-curvature="0"
   style="fill:none;stroke:#c0c0c0;stroke-width:50" />
       <path
   d="m 5170,4800 51,0"
   id="path460"
   inkscape:connector-curvature="0"
   style="fill:none;stroke:#c0c0c0;stroke-width:50" />
       <path
   d="m 5272,4800 51,0"
   id="path462"
   inkscape:connector-curvature="0"
   style="fill:none;stroke:#c0c0c0;stroke-width:50" />
       <path
   d="m 5374,4800 51,0"
   id="path464"
   inkscape:connector-curvature="0"
   style="fill:none;stroke:#c0c0c0;stroke-width:50" />
       <path
   d="m 5476,4800 51,0"
   id="path466"
   inkscape:connector-curvature="0"
   style="fill:none;stroke:#c0c0c0;stroke-width:50" />
       <path
   d="m 5578,4800 51,0"
   id="path468"
   inkscape:connector-curvature="0"
   style="fill:none;stroke:#c0c0c0;stroke-width:50" />
       <path
   d="m 5680,4800 51,0"
   id="path470"
   inkscape:connector-curvature="0"
   style="fill:none;stroke:#c0c0c0;stroke-width:50" />
       <path
   d="m 5782,4800 51,0"
   id="path472"
   inkscape:connector-curvature="0"
   style="fill:none;stroke:#c0c0c0;stroke-width:50" />
       <path
   d="m 5884,4800 51,0"
   id="path474"
   inkscape:connector-curvature="0"
   style="fill:none;stroke:#c0c0c0;stroke-width:50" />
       <path
   d="m 5986,4800 51,0"
   id="path476"
   inkscape:connector-curvature="0"
   style="fill:none;stroke:#c0c0c0;stroke-width:50" />
       <path
   d="m 6088,4800 51,0"
   id="path478"
   inkscape:connector-curvature="0"
   style="fill:none;stroke:#c0c0c0;stroke-width:50" />
       <path
   d="m 6190,4800 51,0"
   id="path480"
   inkscape:connector-curvature="0"
   style="fill:none;stroke:#c0c0c0;stroke-width:50" />
       <path
   d="m 6292,4800 51,0"
   id="path482"
   inkscape:connector-curvature="0"
   style="fill:none;stroke:#c0c0c0;stroke-width:50" />
       <path
   d="m 6394,4800 51,0"
   id="path484"
   inkscape:connector-curvature="0"
   style="fill:none;stroke:#c0c0c0;stroke-width:50" />
       <path
   d="m 6496,4800 51,0"
   id="path486"
   inkscape:connector-curvature="0"
   style="fill:none;stroke:#c0c0c0;stroke-width:50" />
       <path
   d="m 6598,4800 51,0"
   id="path488"
   inkscape:connector-curvature="0"
   style="fill:none;stroke:#c0c0c0;stroke-width:50" />
       <path
   d="m 6700,4800 51,0"
   id="path490"
   inkscape:connector-curvature="0"
   style="fill:none;stroke:#c0c0c0;stroke-width:50" />
       <path
   d="m 6802,4800 51,0"
   id="path492"
   inkscape:connector-curvature="0"
   style="fill:none;stroke:#c0c0c0;stroke-width:50" />
       <path
   d="m 6904,4800 51,0"
   id="path494"
   inkscape:connector-curvature="0"
   style="fill:none;stroke:#c0c0c0;stroke-width:50" />
       <path
   d="m 7006,4800 51,0"
   id="path496"
   inkscape:connector-curvature="0"
   style="fill:none;stroke:#c0c0c0;stroke-width:50" />
       <path
   d="m 7108,4800 51,0"
   id="path498"
   inkscape:connector-curvature="0"
   style="fill:none;stroke:#c0c0c0;stroke-width:50" />
       <path
   d="m 7210,4800 51,0"
   id="path500"
   inkscape:connector-curvature="0"
   style="fill:none;stroke:#c0c0c0;stroke-width:50" />
       <path
   d="m 7312,4800 51,0"
   id="path502"
   inkscape:connector-curvature="0"
   style="fill:none;stroke:#c0c0c0;stroke-width:50" />
       <path
   d="m 7414,4800 51,0"
   id="path504"
   inkscape:connector-curvature="0"
   style="fill:none;stroke:#c0c0c0;stroke-width:50" />
       <path
   d="m 7516,4800 51,0"
   id="path506"
   inkscape:connector-curvature="0"
   style="fill:none;stroke:#c0c0c0;stroke-width:50" />
       <path
   d="m 7618,4800 51,0"
   id="path508"
   inkscape:connector-curvature="0"
   style="fill:none;stroke:#c0c0c0;stroke-width:50" />
       <path
   d="m 7720,4800 51,0"
   id="path510"
   inkscape:connector-curvature="0"
   style="fill:none;stroke:#c0c0c0;stroke-width:50" />
       <path
   d="m 7822,4800 51,0"
   id="path512"
   inkscape:connector-curvature="0"
   style="fill:none;stroke:#c0c0c0;stroke-width:50" />
       <path
   d="m 7924,4800 51,0"
   id="path514"
   inkscape:connector-curvature="0"
   style="fill:none;stroke:#c0c0c0;stroke-width:50" />
       <path
   d="m 8026,4800 51,0"
   id="path516"
   inkscape:connector-curvature="0"
   style="fill:none;stroke:#c0c0c0;stroke-width:50" />
       <path
   d="m 8128,4800 51,0"
   id="path518"
   inkscape:connector-curvature="0"
   style="fill:none;stroke:#c0c0c0;stroke-width:50" />
       <path
   d="m 8230,4800 51,0"
   id="path520"
   inkscape:connector-curvature="0"
   style="fill:none;stroke:#c0c0c0;stroke-width:50" />
       <path
   d="m 8332,4800 51,0"
   id="path522"
   inkscape:connector-curvature="0"
   style="fill:none;stroke:#c0c0c0;stroke-width:50" />
       <path
   d="m 8434,4800 51,0"
   id="path524"
   inkscape:connector-curvature="0"
   style="fill:none;stroke:#c0c0c0;stroke-width:50" />
       <path
   d="m 8536,4800 51,0"
   id="path526"
   inkscape:connector-curvature="0"
   style="fill:none;stroke:#c0c0c0;stroke-width:50" />
       <path
   d="m 8638,4800 51,0"
   id="path528"
   inkscape:connector-curvature="0"
   style="fill:none;stroke:#c0c0c0;stroke-width:50" />
       <path
   d="m 8740,4800 51,0"
   id="path530"
   inkscape:connector-curvature="0"
   style="fill:none;stroke:#c0c0c0;stroke-width:50" />
       <path
   d="m 8842,4800 51,0"
   id="path532"
   inkscape:connector-curvature="0"
   style="fill:none;stroke:#c0c0c0;stroke-width:50" />
       <path
   d="m 8944,4800 51,0"
   id="path534"
   inkscape:connector-curvature="0"
   style="fill:none;stroke:#c0c0c0;stroke-width:50" />
       <path
   d="m 9046,4800 51,0"
   id="path536"
   inkscape:connector-curvature="0"
   style="fill:none;stroke:#c0c0c0;stroke-width:50" />
       <path
   d="m 9148,4800 51,0"
   id="path538"
   inkscape:connector-curvature="0"
   style="fill:none;stroke:#c0c0c0;stroke-width:50" />
       <path
   d="m 9250,4800 51,0"
   id="path540"
   inkscape:connector-curvature="0"
   style="fill:none;stroke:#c0c0c0;stroke-width:50" />
       <path
   d="m 9352,4800 51,0"
   id="path542"
   inkscape:connector-curvature="0"
   style="fill:none;stroke:#c0c0c0;stroke-width:50" />
       <path
   d="m 9454,4800 51,0"
   id="path544"
   inkscape:connector-curvature="0"
   style="fill:none;stroke:#c0c0c0;stroke-width:50" />
       <path
   d="m 9556,4800 51,0"
   id="path546"
   inkscape:connector-curvature="0"
   style="fill:none;stroke:#c0c0c0;stroke-width:50" />
       <path
   d="m 9658,4800 51,0"
   id="path548"
   inkscape:connector-curvature="0"
   style="fill:none;stroke:#c0c0c0;stroke-width:50" />
       <path
   d="m 9760,4800 51,0"
   id="path550"
   inkscape:connector-curvature="0"
   style="fill:none;stroke:#c0c0c0;stroke-width:50" />
       <path
   d="m 9862,4800 51,0"
   id="path552"
   inkscape:connector-curvature="0"
   style="fill:none;stroke:#c0c0c0;stroke-width:50" />
       <path
   d="m 9964,4800 51,0"
   id="path554"
   inkscape:connector-curvature="0"
   style="fill:none;stroke:#c0c0c0;stroke-width:50" />
       <path
   d="m 10066,4800 51,0"
   id="path556"
   inkscape:connector-curvature="0"
   style="fill:none;stroke:#c0c0c0;stroke-width:50" />
       <path
   d="m 10168,4800 51,0"
   id="path558"
   inkscape:connector-curvature="0"
   style="fill:none;stroke:#c0c0c0;stroke-width:50" />
       <path
   d="m 10270,4800 51,0"
   id="path560"
   inkscape:connector-curvature="0"
   style="fill:none;stroke:#c0c0c0;stroke-width:50" />
       <path
   d="m 10372,4800 51,0"
   id="path562"
   inkscape:connector-curvature="0"
   style="fill:none;stroke:#c0c0c0;stroke-width:50" />
       <path
   d="m 10474,4800 51,0"
   id="path564"
   inkscape:connector-curvature="0"
   style="fill:none;stroke:#c0c0c0;stroke-width:50" />
       <path
   d="m 10576,4800 51,0"
   id="path566"
   inkscape:connector-curvature="0"
   style="fill:none;stroke:#c0c0c0;stroke-width:50" />
       <path
   d="m 10678,4800 51,0"
   id="path568"
   inkscape:connector-curvature="0"
   style="fill:none;stroke:#c0c0c0;stroke-width:50" />
       <path
   d="m 10780,4800 20,0"
   id="path570"
   inkscape:connector-curvature="0"
   style="fill:none;stroke:#c0c0c0;stroke-width:50" />
      </g>
     </g>
    </g>
   </g>
  </g>
 </g>
</svg>