<svg xmlns="http://www.w3.org/2000/svg" width="242.114" height="154.134" fill-rule="evenodd" stroke-linejoin="round" stroke-width="28.222" clip-path="url(#a)" preserveAspectRatio="xMidYMid" version="1.2" viewBox="0 0 6833 4350">
  <defs class="ClipPathGroup">
    <clipPath id="a">
      <path d="M0 0h21590v27940H0z"/>
    </clipPath>
  </defs>
  <g class="SlideGroup">
    <g class="Slide" clip-path="url(#a)" transform="translate(-1092 -1075)">
      <g class="Page">
        <g class="com.sun.star.drawing.LineShape">
          <path fill="none" stroke="#000" d="M3900 3600h1470"/>
          <path d="M5800 3600l-450-150v300l450-150z"/>
        </g>
        <g class="com.sun.star.drawing.TextShape">
          <path fill="silver" d="M2823 4000h-878v-683h1755v683h-877z"/>
          <text class="TextShape">
            <tspan class="TextParagraph" font-family="Arial, sans-serif" font-size="388" font-weight="400"><tspan x="2195" y="3793" class="TextPosition"><tspan>original</tspan></tspan></tspan>
          </text>
        </g>
        <g class="com.sun.star.drawing.TextShape">
          <path fill="none" stroke="#000" stroke-width="50" d="M6492 4000h-492v-733h984v733h-492z"/>
          <text class="TextShape">
            <tspan class="TextParagraph" font-family="Arial, sans-serif" font-size="388" font-weight="400"><tspan x="6275" y="3768" class="TextPosition"><tspan>32</tspan></tspan></tspan>
          </text>
        </g>
        <g fill="none" stroke="#000" stroke-width="50" class="com.sun.star.drawing.LineShape">
          <path d="M4600 5400v-51M4600 5298v-51M4600 5196v-51M4600 5094v-51M4600 4992v-51M4600 4890v-51M4600 4788v-51M4600 4686v-51M4600 4584v-51M4600 4482v-51M4600 4380v-51M4600 4278v-51M4600 4176v-51M4600 4074v-51M4600 3972v-51M4600 3870v-51M4600 3768v-51M4600 3666v-51M4600 3564v-51M4600 3462v-51M4600 3360v-51M4600 3258v-51M4600 3156v-51M4600 3054v-51M4600 2952v-51M4600 2850v-51M4600 2748v-51M4600 2646v-51M4600 2544v-51M4600 2442v-51M4600 2340v-51M4600 2238v-51M4600 2136v-51M4600 2034v-51M4600 1932v-51M4600 1830v-51M4600 1728v-51M4600 1626v-51M4600 1524v-51M4600 1422v-51M4600 1320v-51M4600 1218v-51M4600 1116v-16"/>
        </g>
        <g fill="none" stroke="#000" stroke-width="50" class="com.sun.star.drawing.LineShape">
          <path d="M7900 4400h-51M7798 4400h-51M7696 4400h-51M7594 4400h-51M7492 4400h-51M7390 4400h-51M7288 4400h-51M7186 4400h-51M7084 4400h-51M6982 4400h-51M6880 4400h-51M6778 4400h-51M6676 4400h-51M6574 4400h-51M6472 4400h-51M6370 4400h-51M6268 4400h-51M6166 4400h-51M6064 4400h-51M5962 4400h-51M5860 4400h-51M5758 4400h-51M5656 4400h-51M5554 4400h-51M5452 4400h-51M5350 4400h-51M5248 4400h-51M5146 4400h-51M5044 4400h-51M4942 4400h-51M4840 4400h-51M4738 4400h-51M4636 4400h-51M4534 4400h-51M4432 4400h-51M4330 4400h-51M4228 4400h-51M4126 4400h-51M4024 4400h-51M3922 4400h-51M3820 4400h-51M3718 4400h-51M3616 4400h-51M3514 4400h-51M3412 4400h-51M3310 4400h-51M3208 4400h-51M3106 4400h-51M3004 4400h-51M2902 4400h-51M2800 4400h-51M2698 4400h-51M2596 4400h-51M2494 4400h-51M2392 4400h-51M2290 4400h-51M2188 4400h-51M2086 4400h-51M1984 4400h-51M1882 4400h-51M1780 4400h-51M1678 4400h-51M1576 4400h-51M1474 4400h-51M1372 4400h-51M1270 4400h-51M1168 4400h-51"/>
        </g>
        <g class="com.sun.star.drawing.TextShape">
          <text class="TextShape">
            <tspan class="TextParagraph" font-family="Arial, sans-serif" font-size="388" font-weight="400"><tspan x="1991" y="5068" class="TextPosition"><tspan>Variables</tspan></tspan></tspan>
          </text>
        </g>
        <g class="com.sun.star.drawing.TextShape">
          <text class="TextShape">
            <tspan class="TextParagraph" font-family="Arial, sans-serif" font-size="388" font-weight="400"><tspan x="5891" y="5069" class="TextPosition"><tspan>Values</tspan></tspan></tspan>
          </text>
        </g>
        <g class="com.sun.star.drawing.TextShape">
          <path fill="none" stroke="#000" stroke-width="50" d="M6446 3001h-545v-733h1090v733h-545z"/>
          <text class="TextShape">
            <tspan class="TextParagraph" font-family="Arial, sans-serif" font-size="388" font-weight="400"><tspan x="6176" y="2769" class="TextPosition"><tspan>0.0</tspan></tspan></tspan>
          </text>
        </g>
        <g class="com.sun.star.drawing.LineShape">
          <path fill="none" stroke="#000" d="M3801 2700h1469"/>
          <path d="M5700 2700l-450-150v300l450-150z"/>
        </g>
        <g class="com.sun.star.drawing.TextShape">
          <path fill="silver" d="M2853 3001h-607v-683h1213v683h-606z"/>
          <text class="TextShape">
            <tspan class="TextParagraph" font-family="Arial, sans-serif" font-size="388" font-weight="400"><tspan x="2496" y="2794" class="TextPosition"><tspan>final</tspan></tspan></tspan>
          </text>
        </g>
      </g>
    </g>
  </g>
</svg>
