<?xml version="1.0" encoding="UTF-8" standalone="no"?>
<svg
   xmlns:ooo="http://xml.openoffice.org/svg/export"
   xmlns:dc="http://purl.org/dc/elements/1.1/"
   xmlns:cc="http://creativecommons.org/ns#"
   xmlns:rdf="http://www.w3.org/1999/02/22-rdf-syntax-ns#"
   xmlns:svg="http://www.w3.org/2000/svg"
   xmlns="http://www.w3.org/2000/svg"
   xmlns:sodipodi="http://sodipodi.sourceforge.net/DTD/sodipodi-0.dtd"
   xmlns:inkscape="http://www.inkscape.org/namespaces/inkscape"
   version="1.2"
   width="338.42126"
   height="267.55511"
   viewBox="0 0 9551.0001 7550.9999"
   preserveAspectRatio="xMidYMid"
   clip-path="url(#presentation_clip_path)"
   xml:space="preserve"
   id="svg10540"
   inkscape:version="0.48.5 r10040"
   sodipodi:docname="python-flowchart-conditional.svg"
   style="fill-rule:evenodd;stroke-width:28.22200012;stroke-linejoin:round"><metadata
     id="metadata10683"><rdf:RDF><cc:Work
         rdf:about=""><dc:format>image/svg+xml</dc:format><dc:type
           rdf:resource="http://purl.org/dc/dcmitype/StillImage" /><dc:title></dc:title></cc:Work></rdf:RDF></metadata><sodipodi:namedview
     pagecolor="#ffffff"
     bordercolor="#666666"
     borderopacity="1"
     objecttolerance="10"
     gridtolerance="10"
     guidetolerance="10"
     inkscape:pageopacity="0"
     inkscape:pageshadow="2"
     inkscape:window-width="933"
     inkscape:window-height="660"
     id="namedview10681"
     showgrid="false"
     fit-margin-top="0"
     fit-margin-left="0"
     fit-margin-right="0"
     fit-margin-bottom="0"
     inkscape:zoom="2"
     inkscape:cx="160.86614"
     inkscape:cy="170.64567"
     inkscape:window-x="0"
     inkscape:window-y="0"
     inkscape:window-maximized="0"
     inkscape:current-layer="svg10540" /><defs
     class="ClipPathGroup"
     id="defs10542"><clipPath
       id="presentation_clip_path"
       clipPathUnits="userSpaceOnUse"><rect
         x="0"
         y="0"
         width="21590"
         height="27940"
         id="rect10545" /></clipPath></defs><defs
     class="TextShapeIndex"
     id="defs10547"><g
       ooo:slide="id1"
       ooo:id-list="id3 id4 id5 id6 id7 id8 id9 id10 id11"
       id="g10549" /></defs><defs
     class="EmbeddedBulletChars"
     id="defs10551"><g
       id="bullet-char-template(57356)"
       transform="scale(4.8828125e-4,-4.8828125e-4)"><path
         d="M 580,1141 1163,571 580,0 -4,571 580,1141 z"
         id="path10554"
         inkscape:connector-curvature="0" /></g><g
       id="bullet-char-template(57354)"
       transform="scale(4.8828125e-4,-4.8828125e-4)"><path
         d="m 8,1128 1129,0 L 1137,0 8,0 8,1128 z"
         id="path10557"
         inkscape:connector-curvature="0" /></g><g
       id="bullet-char-template(10146)"
       transform="scale(4.8828125e-4,-4.8828125e-4)"><path
         d="M 174,0 602,739 174,1481 1456,739 174,0 z m 1184,739 -1049,607 350,-607 699,0 z"
         id="path10560"
         inkscape:connector-curvature="0" /></g><g
       id="bullet-char-template(10132)"
       transform="scale(4.8828125e-4,-4.8828125e-4)"><path
         d="M 2015,739 1276,0 717,0 l 543,543 -1086,0 0,393 1086,0 -543,545 557,0 741,-742 z"
         id="path10563"
         inkscape:connector-curvature="0" /></g><g
       id="bullet-char-template(10007)"
       transform="scale(4.8828125e-4,-4.8828125e-4)"><path
         d="m 0,-2 c -7,16 -16,29 -25,39 l 381,530 c -94,256 -141,385 -141,387 0,25 13,38 40,38 9,0 21,-2 34,-5 21,4 42,12 65,25 l 27,-13 111,-251 280,301 64,-25 24,25 c 21,-10 41,-24 62,-43 C 886,937 835,863 770,784 769,783 710,716 594,584 L 774,223 c 0,-27 -21,-55 -63,-84 l 16,-20 C 717,90 699,76 672,76 641,76 570,178 457,381 L 164,-76 c -22,-34 -53,-51 -92,-51 -42,0 -63,17 -64,51 -7,9 -10,24 -10,44 0,9 1,19 2,30 z"
         id="path10566"
         inkscape:connector-curvature="0" /></g><g
       id="bullet-char-template(10004)"
       transform="scale(4.8828125e-4,-4.8828125e-4)"><path
         d="M 285,-33 C 182,-33 111,30 74,156 52,228 41,333 41,471 c 0,78 14,145 41,201 34,71 87,106 158,106 53,0 88,-31 106,-94 l 23,-176 c 8,-64 28,-97 59,-98 l 735,706 c 11,11 33,17 66,17 42,0 63,-15 63,-46 l 0,-122 c 0,-36 -10,-64 -30,-84 L 442,47 C 390,-6 338,-33 285,-33 z"
         id="path10569"
         inkscape:connector-curvature="0" /></g><g
       id="bullet-char-template(9679)"
       transform="scale(4.8828125e-4,-4.8828125e-4)"><path
         d="M 813,0 C 632,0 489,54 383,161 276,268 223,411 223,592 c 0,181 53,324 160,431 106,107 249,161 430,161 179,0 323,-54 432,-161 108,-107 162,-251 162,-431 0,-180 -54,-324 -162,-431 C 1136,54 992,0 813,0 z"
         id="path10572"
         inkscape:connector-curvature="0" /></g><g
       id="bullet-char-template(8226)"
       transform="scale(4.8828125e-4,-4.8828125e-4)"><path
         d="m 346,457 c -73,0 -137,26 -191,78 -54,51 -81,114 -81,188 0,73 27,136 81,188 54,52 118,78 191,78 73,0 134,-26 185,-79 51,-51 77,-114 77,-187 0,-75 -25,-137 -76,-188 -50,-52 -112,-78 -186,-78 z"
         id="path10575"
         inkscape:connector-curvature="0" /></g><g
       id="bullet-char-template(8211)"
       transform="scale(4.8828125e-4,-4.8828125e-4)"><path
         d="m -4,459 1139,0 0,147 -1139,0 0,-147 z"
         id="path10578"
         inkscape:connector-curvature="0" /></g></defs><defs
     class="TextEmbeddedBitmaps"
     id="defs10580" /><g
     id="g10582"
     transform="translate(-1175,-1075)"><g
       id="id2"
       class="Master_Slide"><g
         id="bg-id2"
         class="Background" /><g
         id="bo-id2"
         class="BackgroundObjects" /></g></g><g
     id="g3088"><g
       transform="translate(-1175,-1075)"
       id="g10587"
       class="SlideGroup"><g
         id="g10589"><g
           clip-path="url(#presentation_clip_path)"
           class="Slide"
           id="id1"><g
             id="g10592"
             class="Page"><g
               id="g10594"
               class="com.sun.star.drawing.CustomShape"><g
                 id="id3"><path
                   style="fill:none;stroke:#000000;stroke-width:50"
                   inkscape:connector-curvature="0"
                   id="path10597"
                   d="m 4250,3250 1600,-850 1601,850 -1601,851 -1600,-851 0,0 z" /><text
                   id="text10599"
                   class="TextShape"><tspan
                     style="font-size:388px;font-weight:400;font-family:'Arial, sans-serif'"
                     id="tspan10601"
                     font-weight="400"
                     font-size="388px"
                     class="TextParagraph"><tspan
                       id="tspan10603"
                       y="3385"
                       x="4927"
                       class="TextPosition"><tspan
                         style="fill:#000000;stroke:none"
                         id="tspan10605">num &gt; 100</tspan></tspan></tspan></text>
</g></g><g
               id="g10607"
               class="com.sun.star.drawing.LineShape"><g
                 id="id4"><path
                   style="fill:none;stroke:#000000;stroke-width:50"
                   inkscape:connector-curvature="0"
                   id="path10610"
                   d="m 5850,1100 0,763" /><path
                   style="fill:#000000;stroke:none"
                   inkscape:connector-curvature="0"
                   id="path10612"
                   d="m 5850,2400 188,-562 -375,0 187,562 z" /></g></g><g
               id="g10614"
               class="com.sun.star.drawing.CustomShape"><g
                 id="id5"><path
                   style="fill:none;stroke:#000000;stroke-width:50"
                   inkscape:connector-curvature="0"
                   id="path10617"
                   d="m 1200,4300 2801,0 0,1201 -2801,0 0,-1201 0,0 z" /><text
                   id="text10619"
                   class="TextShape"><tspan
                     style="font-size:388px;font-weight:400;font-family:'Arial, sans-serif'"
                     id="tspan10621"
                     font-weight="400"
                     font-size="388px"
                     class="TextParagraph"><tspan
                       id="tspan10623"
                       y="5035"
                       x="1481"
                       class="TextPosition"><tspan
                         style="fill:#000000;stroke:none"
                         id="tspan10625">print 'greater'</tspan></tspan></tspan></text>
</g></g><g
               id="g10627"
               class="com.sun.star.drawing.CustomShape"><g
                 id="id6"><path
                   style="fill:none;stroke:#000000;stroke-width:50"
                   inkscape:connector-curvature="0"
                   id="path10630"
                   d="m 7500,4300 3201,0 0,1201 -3201,0 0,-1201 0,0 z" /><text
                   id="text10632"
                   class="TextShape"><tspan
                     style="font-size:388px;font-weight:400;font-family:'Arial, sans-serif'"
                     id="tspan10634"
                     font-weight="400"
                     font-size="388px"
                     class="TextParagraph"><tspan
                       id="tspan10636"
                       y="5035"
                       x="7656"
                       class="TextPosition"><tspan
                         style="fill:#000000;stroke:none"
                         id="tspan10638">print 'not greater'</tspan></tspan></tspan></text>
</g></g><g
               id="g10640"
               class="com.sun.star.drawing.CustomShape"><g
                 id="id7"><path
                   style="fill:none;stroke:#000000;stroke-width:50"
                   inkscape:connector-curvature="0"
                   id="path10643"
                   d="m 4500,7400 2801,0 0,1201 -2801,0 0,-1201 0,0 z" /><text
                   id="text10645"
                   class="TextShape"><tspan
                     style="font-size:388px;font-weight:400;font-family:'Arial, sans-serif'"
                     id="tspan10647"
                     font-weight="400"
                     font-size="388px"
                     class="TextParagraph"><tspan
                       id="tspan10649"
                       y="8135"
                       x="4963"
                       class="TextPosition"><tspan
                         style="fill:#000000;stroke:none"
                         id="tspan10651">print 'done'</tspan></tspan></tspan></text>
</g></g><g
               id="g10653"
               class="com.sun.star.drawing.ConnectorShape"><g
                 id="id8"><path
                   style="fill:none;stroke:#000000;stroke-width:50"
                   inkscape:connector-curvature="0"
                   id="path10656"
                   d="m 4250,3250 -1650,0 0,513" /><path
                   style="fill:#000000;stroke:none"
                   inkscape:connector-curvature="0"
                   id="path10658"
                   d="m 2600,4300 188,-562 -375,0 187,562 z" /></g></g><g
               id="g10660"
               class="com.sun.star.drawing.ConnectorShape"><g
                 id="id9"><path
                   style="fill:none;stroke:#000000;stroke-width:50"
                   inkscape:connector-curvature="0"
                   id="path10663"
                   d="m 7450,3250 1650,0 0,513" /><path
                   style="fill:#000000;stroke:none"
                   inkscape:connector-curvature="0"
                   id="path10665"
                   d="m 9100,4300 188,-562 -375,0 187,562 z" /></g></g><g
               id="g10667"
               class="com.sun.star.drawing.ConnectorShape"><g
                 id="id10"><path
                   style="fill:none;stroke:#000000;stroke-width:50"
                   inkscape:connector-curvature="0"
                   id="path10670"
                   d="m 2600,5500 0,750 3300,0 0,613" /><path
                   style="fill:#000000;stroke:none"
                   inkscape:connector-curvature="0"
                   id="path10672"
                   d="m 5900,7400 188,-562 -375,0 187,562 z" /></g></g><g
               id="g10674"
               class="com.sun.star.drawing.ConnectorShape"><g
                 id="id11"><path
                   style="fill:none;stroke:#000000;stroke-width:50"
                   inkscape:connector-curvature="0"
                   id="path10677"
                   d="m 9100,5500 0,750 -3200,0 0,613" /><path
                   style="fill:#000000;stroke:none"
                   inkscape:connector-curvature="0"
                   id="path10679"
                   d="m 5900,7400 188,-562 -375,0 187,562 z" /></g></g></g></g></g></g><text
       sodipodi:linespacing="125%"
       id="text3080"
       y="2048.7207"
       x="1862.6666"
       style="font-size:1128.88891602px;font-style:normal;font-weight:normal;line-height:125%;letter-spacing:0px;word-spacing:0px;fill:#000000;fill-opacity:1;stroke:none;font-family:Sans"
       xml:space="preserve"><tspan
         style="font-size:366.8888855px"
         y="2048.7207"
         x="1862.6666"
         id="tspan3082"
         sodipodi:role="line">True</tspan></text>
<text
       sodipodi:linespacing="125%"
       id="text3084"
       y="2054.7222"
       x="6604"
       style="font-size:1128.88891602px;font-style:normal;font-weight:normal;line-height:125%;letter-spacing:0px;word-spacing:0px;fill:#000000;fill-opacity:1;stroke:none;font-family:Sans"
       xml:space="preserve"><tspan
         style="font-size:366.8888855px"
         y="2054.7222"
         x="6604"
         id="tspan3086"
         sodipodi:role="line">False</tspan></text>
</g></svg>